<?xml version="1.0" encoding="utf-8"?>
<!-- Generator: Adobe Illustrator 14.0.0, SVG Export Plug-In . SVG Version: 6.00 Build 43363)  -->
<!DOCTYPE svg PUBLIC "-//W3C//DTD SVG 1.1//EN" "http://www.w3.org/Graphics/SVG/1.1/DTD/svg11.dtd">
<svg version="1.1" id="Layer_1" xmlns="http://www.w3.org/2000/svg" xmlns:xlink="http://www.w3.org/1999/xlink" x="0px" y="0px"
	 width="253.5px" height="208.033px" viewBox="0 0 253.5 208.033" enable-background="new 0 0 253.5 208.033" xml:space="preserve">
<path fill="none" d="M47.231,82.146c20.82-44.594,73.205-64.159,117.024-43.703c43.802,20.453,62.446,73.186,41.619,117.779
	c-20.815,44.596-73.206,64.153-117.021,43.699C45.04,179.473,26.4,126.739,47.231,82.146z"/>
<text transform="matrix(-0.9633 -0.1934 0.1968 -0.9804 113.3457 207.3467)" fill="#8DC63F" stroke="#8DC63F" stroke-width="0.432" font-family="'MavenProLight300-Regular'" font-size="33.0144"> </text>
<text transform="matrix(-0.9247 -0.3319 0.3378 -0.9412 98.061 203.6201)" fill="#8DC63F" stroke="#8DC63F" stroke-width="0.432" font-family="'MavenProLight300-Regular'" font-size="12.4156"> </text>
<text transform="matrix(-0.9002 -0.3936 0.4006 -0.9163 92.5537 201.5684)" fill="#8DC63F" stroke="#8DC63F" stroke-width="0.432" font-family="'MavenProLight300-Regular'" font-size="12.4156"> </text>
<text transform="matrix(-0.8719 -0.4528 0.4609 -0.8875 87.2178 199.1602)" fill="#8DC63F" stroke="#8DC63F" stroke-width="0.432" font-family="'MavenProLight300-Regular'" font-size="12.4156"> </text>
<text transform="matrix(-0.8394 -0.5106 0.5197 -0.8543 82.0537 196.4004)" fill="#8DC63F" stroke="#8DC63F" stroke-width="0.432" font-family="'MavenProLight300-Regular'" font-size="12.4156"> </text>
<text transform="matrix(-0.8027 -0.5665 0.5766 -0.817 77.0894 193.2979)" fill="#8DC63F" stroke="#8DC63F" stroke-width="0.432" font-family="'MavenProLight300-Regular'" font-size="12.4156"> </text>
<text transform="matrix(-0.7457 -0.6397 0.6511 -0.759 72.4268 190.0381)" fill="#8DC63F" stroke="#8DC63F" stroke-width="0.432" font-family="'MavenProLight300-Regular'" font-size="28.2174"> </text>
<text transform="matrix(-0.6382 -0.747 0.7603 -0.6496 62.5752 181.1074)" fill="#8DC63F" stroke="#8DC63F" stroke-width="0.432" font-family="'MavenProLight300-Regular'" font-size="28.2174"> </text>
<text transform="matrix(-0.5165 -0.8357 0.8506 -0.5257 54.1978 170.7412)" fill="#8DC63F" stroke="#8DC63F" stroke-width="0.432" font-family="'MavenProLight300-Regular'" font-size="28.2174"> </text>
<text transform="matrix(-0.3898 -0.9018 0.9179 -0.3968 47.5176 159.2061)" fill="#8DC63F" stroke="#8DC63F" stroke-width="0.432" font-family="'MavenProLight300-Regular'" font-size="24.8138"> </text>
<text transform="matrix(-0.2678 -0.9453 0.9621 -0.2726 43.1177 148.3359)" fill="#8DC63F" stroke="#8DC63F" stroke-width="0.432" font-family="'MavenProLight300-Regular'" font-size="24.8138"> </text>
<text transform="matrix(-0.1416 -0.9722 0.9896 -0.1441 40.1836 136.9717)" fill="#8DC63F" stroke="#8DC63F" stroke-width="0.432" font-family="'MavenProLight300-Regular'" font-size="24.8138"> </text>
<text transform="matrix(0.0071 -0.9825 1 0.0072 38.6641 125.4375)" fill="#8DC63F" stroke="#8DC63F" stroke-width="0.432" font-family="'MavenProLight300-Regular'" font-size="23.8213">L</text>
<text transform="matrix(0.1757 -0.9666 0.9839 0.1788 38.8354 111.5439)" fill="#8DC63F" stroke="#8DC63F" stroke-width="0.432" font-family="'MavenProLight300-Regular'" font-size="23.8213">A</text>
<text transform="matrix(0.3565 -0.9155 0.9319 0.3628 42.0469 94.9131)" fill="#8DC63F" stroke="#8DC63F" stroke-width="0.432" font-family="'MavenProLight300-Regular'" font-size="23.8213">U</text>
<text transform="matrix(0.5179 -0.8349 0.8498 0.5272 48.8018 78.3936)" fill="#8DC63F" stroke="#8DC63F" stroke-width="0.432" font-family="'MavenProLight300-Regular'" font-size="23.8213">R</text>
<text transform="matrix(0.6523 -0.7347 0.7478 0.664 57.4648 64.9141)" fill="#8DC63F" stroke="#8DC63F" stroke-width="0.432" font-family="'MavenProLight300-Regular'" font-size="23.8213">E</text>
<text transform="matrix(0.7615 -0.6208 0.6319 0.7751 67.4897 53.9746)" fill="#8DC63F" stroke="#8DC63F" stroke-width="0.432" font-family="'MavenProLight300-Regular'" font-size="23.8213">L</text>
<text transform="matrix(0.8375 -0.5138 0.5229 0.8524 78.582 45.334)" fill="#8DC63F" stroke="#8DC63F" stroke-width="0.432" font-family="'MavenProLight300-Regular'" font-size="23.8213"> </text>
<text transform="matrix(0.9018 -0.3899 0.3968 0.9179 87 40.1504)" fill="#8DC63F" stroke="#8DC63F" stroke-width="0.432" font-family="'MavenProLight300-Regular'" font-size="23.8213">T</text>
<text transform="matrix(0.9562 -0.2257 0.2298 0.9732 101.1235 34.2383)" fill="#8DC63F" stroke="#8DC63F" stroke-width="0.432" font-family="'MavenProLight300-Regular'" font-size="23.8213">R</text>
<text transform="matrix(0.9809 -0.055 0.056 0.9984 116.7705 30.8125)" fill="#8DC63F" stroke="#8DC63F" stroke-width="0.432" font-family="'MavenProLight300-Regular'" font-size="23.8213">E</text>
<text transform="matrix(0.976 0.1127 -0.1147 0.9934 131.5166 30.1875)" fill="#8DC63F" stroke="#8DC63F" stroke-width="0.432" font-family="'MavenProLight300-Regular'" font-size="23.8213">E</text>
<text transform="matrix(0.9496 0.252 -0.2565 0.9666 146.3047 32.2656)" fill="#8DC63F" stroke="#8DC63F" stroke-width="0.432" font-family="'MavenProLight300-Regular'" font-size="23.8213"> </text>
<text transform="matrix(0.9143 0.3596 -0.3661 0.9306 155.8916 34.9707)" fill="#8DC63F" stroke="#8DC63F" stroke-width="0.432" font-family="'MavenProLight300-Regular'" font-size="23.8213"> </text>
<text transform="matrix(0.8502 0.4924 -0.5012 0.8653 165.0684 38.5205)" fill="#8DC63F" stroke="#8DC63F" stroke-width="0.432" font-family="'MavenProLight300-Regular'" font-size="23.8213">C</text>
<text transform="matrix(0.7326 0.6547 -0.6664 0.7456 178.9746 46.6641)" fill="#8DC63F" stroke="#8DC63F" stroke-width="0.432" font-family="'MavenProLight300-Regular'" font-size="23.8213">O</text>
<text transform="matrix(0.57 0.8002 -0.8145 0.5802 192.9736 59.46)" fill="#8DC63F" stroke="#8DC63F" stroke-width="0.432" font-family="'MavenProLight300-Regular'" font-size="23.8213">M</text>
<text transform="matrix(0.4013 0.8968 -0.9128 0.4084 204.0039 75.7266)" fill="#8DC63F" stroke="#8DC63F" stroke-width="0.432" font-family="'MavenProLight300-Regular'" font-size="23.8213">P</text>
<text transform="matrix(0.2289 0.9554 -0.9725 0.233 210.1387 89.6875)" fill="#8DC63F" stroke="#8DC63F" stroke-width="0.432" font-family="'MavenProLight300-Regular'" font-size="23.8213">U</text>
<text transform="matrix(0.0495 0.9812 -0.9987 0.0504 213.9619 107.0693)" fill="#8DC63F" stroke="#8DC63F" stroke-width="0.432" font-family="'MavenProLight300-Regular'" font-size="23.8213">T</text>
<text transform="matrix(-0.0776 0.9794 -0.9969 -0.079 214.3164 122.6328)" fill="#8DC63F" stroke="#8DC63F" stroke-width="0.432" font-family="'MavenProLight300-Regular'" font-size="23.8213">I</text>
<text transform="matrix(-0.2166 0.9583 -0.9754 -0.2205 213.9209 130.1445)" fill="#8DC63F" stroke="#8DC63F" stroke-width="0.432" font-family="'MavenProLight300-Regular'" font-size="23.8213">N</text>
<text transform="matrix(-0.397 0.8987 -0.9147 -0.4041 209.7178 147.5713)" fill="#8DC63F" stroke="#8DC63F" stroke-width="0.432" font-family="'MavenProLight300-Regular'" font-size="23.8213">G</text>
<g>
	<g>
		<g>
			<g>
				<path fill-rule="evenodd" clip-rule="evenodd" fill="#1A75BC" d="M195.984,158.604l-5.176-2.942
					c-1.636,2.742-3.271,5.475-5.285,7.96l4.754,3.593C192.444,164.522,194.222,161.572,195.984,158.604z"/>
			</g>
			<g>
				<path fill-rule="evenodd" clip-rule="evenodd" fill="#1A75BC" d="M203.208,141.578l-5.717-1.669
					c-0.896,3.05-2.029,6.045-3.262,8.98l5.453,2.402C201.018,148.117,202.238,144.878,203.208,141.578z"/>
			</g>
			<g>
				<path fill-rule="evenodd" clip-rule="evenodd" fill="#1A75BC" d="M206.242,123.395l-5.946-0.309
					c-0.022,3.2-0.593,6.343-1.076,9.5l5.857,1.073C205.605,130.254,206.205,126.859,206.242,123.395z"/>
			</g>
		</g>
		<g>
			<g>
				<path fill-rule="evenodd" clip-rule="evenodd" fill="#1A75BC" d="M154.411,193.929l-2.073-5.582
					c-2.955,1.215-6.048,1.992-9.146,2.757l1.331,5.805C147.872,196.088,151.21,195.237,154.411,193.929z"/>
			</g>
			<g>
				<path fill-rule="evenodd" clip-rule="evenodd" fill="#1A75BC" d="M170.915,185.575l-3.307-4.95
					c-2.765,1.587-5.363,3.472-8.311,4.722l2.641,5.341C165.117,189.321,167.94,187.309,170.915,185.575z"/>
			</g>
			<g>
				<path fill-rule="evenodd" clip-rule="evenodd" fill="#1A75BC" d="M184.922,173.59l-4.353-4.062
					c-2.033,2.464-4.618,4.389-6.909,6.607l3.796,4.592C179.941,178.342,182.713,176.246,184.922,173.59z"/>
			</g>
		</g>
		<g>
			<g>
				<path fill-rule="evenodd" clip-rule="evenodd" fill="#1A75BC" d="M99.867,194.289l2-5.605c-3.04-0.98-5.927-2.332-8.778-3.768
					l-2.711,5.301C93.459,191.771,96.582,193.22,99.867,194.289z"/>
			</g>
			<g>
				<path fill-rule="evenodd" clip-rule="evenodd" fill="#1A75BC" d="M117.884,198.488l0.646-5.917
					c-3.134-0.569-6.345-0.765-9.4-1.713l-1.411,5.781C111.026,197.654,114.491,197.896,117.884,198.488z"/>
			</g>
			<g>
				<path fill-rule="evenodd" clip-rule="evenodd" fill="#1A75BC" d="M136.317,198.349l-0.715-5.911
					c-3.155,0.419-6.368,0.46-9.546,0.569l-0.046,5.955C129.444,198.846,132.904,198.809,136.317,198.349z"/>
			</g>
		</g>
		<g>
			<g>
				<path fill-rule="evenodd" clip-rule="evenodd" fill="#1A75BC" d="M57.851,159.508l5.137-3.011
					c-1.799-2.65-2.887-5.687-4.365-8.503l-5.484,2.324C54.72,153.379,55.925,156.634,57.851,159.508z"/>
			</g>
			<g>
				<path fill-rule="evenodd" clip-rule="evenodd" fill="#1A75BC" d="M68.988,174.274l4.304-4.114
					c-2.184-2.33-4.31-4.706-6.129-7.334l-4.799,3.526C64.335,169.184,66.627,171.758,68.988,174.274z"/>
			</g>
			<g>
				<path fill-rule="evenodd" clip-rule="evenodd" fill="#1A75BC" d="M83.161,186.054l3.254-4.99
					c-2.653-1.75-5.223-3.676-7.658-5.722l-3.865,4.534C77.521,182.086,80.292,184.161,83.161,186.054z"/>
			</g>
		</g>
		<g>
			<g>
				<path fill-rule="evenodd" clip-rule="evenodd" fill="#1A75BC" d="M48.034,105.86l5.871,0.988
					c0.318-3.185,1.432-6.215,2.125-9.316l-5.697-1.744C49.567,99.142,48.395,102.42,48.034,105.86z"/>
			</g>
			<g>
				<path fill-rule="evenodd" clip-rule="evenodd" fill="#1A75BC" d="M47.091,124.323l5.945-0.382
					c-0.276-3.185-0.27-6.372,0.002-9.562l-5.945-0.382C46.806,117.441,46.802,120.884,47.091,124.323z"/>
			</g>
			<g>
				<path fill-rule="evenodd" clip-rule="evenodd" fill="#1A75BC" d="M50.31,142.478l5.695-1.738
					c-0.701-3.103-1.794-6.134-2.113-9.319l-5.875,0.981C48.38,135.842,49.53,139.125,50.31,142.478z"/>
			</g>
		</g>
		<g>
			<g>
				<path fill-rule="evenodd" clip-rule="evenodd" fill="#1A75BC" d="M74.969,58.422l3.86,4.533
					c2.451-2.025,4.999-3.973,7.667-5.705l-3.246-4.992C80.37,54.13,77.612,56.227,74.969,58.422z"/>
			</g>
			<g>
				<path fill-rule="evenodd" clip-rule="evenodd" fill="#1A75BC" d="M62.391,71.98l4.798,3.533
					c1.816-2.633,3.953-5.004,6.132-7.341l-4.303-4.117C66.66,66.575,64.36,69.144,62.391,71.98z"/>
			</g>
			<g>
				<path fill-rule="evenodd" clip-rule="evenodd" fill="#1A75BC" d="M53.186,87.953l5.478,2.334
					c1.475-2.826,2.578-5.85,4.377-8.494l-5.133-3.028C55.98,81.637,54.76,84.89,53.186,87.953z"/>
			</g>
		</g>
		<g>
			<g>
				<path fill-rule="evenodd" clip-rule="evenodd" fill="#1A75BC" d="M126.115,39.401l0.039,5.953
					c3.179,0.141,6.39,0.145,9.543,0.589l0.721-5.91C133.013,39.555,129.55,39.534,126.115,39.401z"/>
			</g>
			<g>
				<path fill-rule="evenodd" clip-rule="evenodd" fill="#1A75BC" d="M107.765,41.711l1.404,5.79
					c3.054-0.96,6.267-1.136,9.403-1.709l-0.643-5.923C114.539,40.471,111.07,40.696,107.765,41.711z"/>
			</g>
			<g>
				<path fill-rule="evenodd" clip-rule="evenodd" fill="#1A75BC" d="M90.472,48.105l2.705,5.302
					c2.846-1.437,5.741-2.772,8.783-3.756l-1.993-5.614C96.681,45.11,93.551,46.541,90.472,48.105z"/>
			</g>
		</g>
		<g>
			<g>
				<path fill-rule="evenodd" clip-rule="evenodd" fill="#1A75BC" d="M177.532,57.714l-3.802,4.584
					c2.301,2.212,4.869,4.144,6.904,6.617l4.357-4.061C182.783,62.195,180.024,60.087,177.532,57.714z"/>
			</g>
			<g>
				<path fill-rule="evenodd" clip-rule="evenodd" fill="#1A75BC" d="M161.978,47.701l-2.643,5.334
					c2.949,1.246,5.545,3.146,8.306,4.729l3.309-4.951C167.976,51.087,165.157,49.062,161.978,47.701z"/>
			</g>
			<g>
				<path fill-rule="evenodd" clip-rule="evenodd" fill="#1A75BC" d="M144.624,41.481l-1.338,5.806
					c3.1,0.752,6.187,1.551,9.142,2.767l2.082-5.579C151.31,43.168,147.977,42.295,144.624,41.481z"/>
			</g>
		</g>
		<g>
			<g>
				<path fill-rule="evenodd" clip-rule="evenodd" fill="#1A75BC" d="M205.094,104.813l-5.858,1.066
					c0.491,3.15,1.039,6.295,1.064,9.497l5.948-0.303C206.209,111.62,205.632,108.218,205.094,104.813z"/>
			</g>
			<g>
				<path fill-rule="evenodd" clip-rule="evenodd" fill="#1A75BC" d="M199.698,87.119l-5.451,2.398
					c1.224,2.93,2.369,5.926,3.253,8.979l5.719-1.665C202.257,93.525,201.026,90.293,199.698,87.119z"/>
			</g>
			<g>
				<path fill-rule="evenodd" clip-rule="evenodd" fill="#1A75BC" d="M190.338,71.238l-4.756,3.587
					c2.018,2.481,3.635,5.231,5.276,7.969l5.18-2.943C194.269,76.893,192.512,73.93,190.338,71.238z"/>
			</g>
		</g>
	</g>
	<circle fill="#1A75BC" cx="126.643" cy="119.184" r="74.307"/>
</g>
<g>
	<defs>
		<path id="SVGID_1_" d="M118.95,174.877h15.974l-1.525-30.91l1.771-7.61l5.629,3.76l7.775,7.885l7.268,2.471l11.502-4.488
			c0,0,9.776-8.409,10.962-8.334c1.185,0.072,6.855-18.606,6.764-20.4c-0.09-1.793-4.462-11.304-3.884-12.017
			c0.575-0.714,1.844-5.977,1.844-5.977L149.271,67.56l-14.348-0.633l-9.387-4.164l-7.751,0.537l-12,7.815l-10.2,8.862
			l-7.888,10.516L78.382,98.1l-6.857,4.265c0,0,0.461-1.813,3.264,5.669c3.215,8.583-1.322,15.647-1.322,15.647l10.606,16.436
			l15.146,6.442l11.164-5.737l6.455-0.705l4.463,0.705L118.95,174.877z"/>
	</defs>
	<clipPath id="SVGID_2_">
		<use xlink:href="#SVGID_1_"  overflow="visible"/>
	</clipPath>
	<g id="XMLID_2_" clip-path="url(#SVGID_2_)">
		<g>
			<path fill="#FFFFFF" d="M165.716,97.128c0.694,0,0.215,1.185,0.93,1.175c0.195-0.509,0.606-0.803,0.46-1.645
				C166.42,96.893,165.96,96.991,165.716,97.128z M153.667,105.223c-0.333,0.45-0.793-0.509-1.361-0.343
				c-0.548,0.94-2.016,0.959-3.278,1.175c0.02,0.969-0.411,1.478-0.245,2.584c0.705,0.714,1.331-1.537,2.124-0.705
				c-0.362,0.979-1.801,0.871-1.654,2.349C151.904,109.94,152.894,106.769,153.667,105.223z M93.823,125.885
				c-0.274,0.137-0.509,0.264-0.705,0.372C93.431,126.179,93.666,126.052,93.823,125.885z M93.842,125.875
				c1.194-0.607,3.024-1.468,4.209-2.203c-2.007,0.108-2.888-1.83-4.933-0.939C93.989,123.331,94.684,125.043,93.842,125.875z
				 M196.234,41.219c0,49.41,0,98.82,0,148.229c-45.886,0-91.772,0-137.658,0c0-49.175,0-98.35,0-147.524
				c-0.02-0.333-0.039-0.666,0.245-0.705C104.619,41.219,150.427,41.219,196.234,41.219z M184.724,123.908
				c1.077-7.302-0.793-14.545,0-22.787c-9.122-10.17-19.869-19.733-30.304-29.364c-1.947-1.801-5.197-5.491-7.047-6.107
				c-2.985-0.999-7.948-0.47-10.571-0.94c-2.075-0.372-4.375-1.252-6.567-1.879c-2.124-0.607-4.601-1.987-6.578-1.879
				c-1.674,0.098-3.876,1.605-5.872,2.349c-6.343,2.369-12.206,4.365-17.854,6.812c-3.494,7.243-9.073,14.016-14.339,19.732
				c-1.811,1.977-3.7,4.669-5.638,5.873c-2.545,1.595-5.804,1.908-8.692,3.289c0.127,1.214,0.783,1.889,0.94,3.054
				c2.457-0.783,6.264-1.488,7.987,0.47c0.343,0.333-0.049,1.146-0.235,1.645c1.566,0.049,0.088-2.447,0.705-2.819
				c1.136,3.729,4.395,5.325,8.222,6.343c1.243,1.664,2.271,3.533,4.933,3.758c0.059-1.771-1.233-2.212-2.819-2.349
				c-0.167-3.191-5.227-2.75-5.403-5.168c1.938,0.343,3.299,2.496,4.708,2.584c-3.533-2.457-5.55-12.196,0.46-13.39
				c2.026,4.16-2.897,7.439-1.175,11.276c0.587-1.762,1.566-3.132,2.114-4.933c2.006,1.125,2.829,3.436,4.473,4.933
				c0.763-0.323-0.02-2.212,0.939-2.349c0.254,1.498-1.312,4.512,0.94,4.463c0.146-1.635-0.656-2.32-0.715-3.758
				c0.901-0.176,1.684,0.959,2.349,0.235c-2.79-0.734-4.454-4.826-3.289-7.987c1.507,1.008,3.171,1.85,4.229,3.289
				c0.372-1.821,2.153-2.232,2.584-3.994c-1.801-0.949-2.633,0.92-4.463,0.705c0.284-0.891,1.84-0.509,2.124-1.409
				c-1.498-1.664-3.24,0.127-4.943,0c-2.564-0.186-3.759-2.927-4.229-4.933c3.308,0.146,6.949-0.049,6.578,3.758
				c1.859-0.44,2.682,1.39,3.993,0.705c-2.73-0.714-3.817-5.08-2.104-7.517c-0.725-1.39-2.457-1.771-3.769-2.584
				c1.331-0.01,0.02-0.949,0.47-1.409c0.499-0.5,0.411,0.391,1.185,0.235c0.852-0.167,1.909-1.782,3.054-1.879
				c1.831,0.597,3.279,2.819,5.873,1.879c-1.272-0.607-2.457-1.302-2.829-2.819c1.292,1.067,1.909,2.79,3.994,3.054
				c-0.597-3.103-1.693-6.215-0.705-9.631c3.289,2.192,8.564,5.824,5.638,11.275c2.094,0.294,1.203-2.398,3.288-2.114
				c0.078-1.332-1.575-2.173-0.694-3.524c0.47,1.175,0.548,2.741,1.634,3.289c0.089-0.998-1.037-2.124,0.245-2.349
				c0.353,1.047,0.382,2.438,0.695,3.524c1.125-0.685,2.271-1.331,3.523-1.879c-0.725-3.808-5.012-4.062-6.578-7.047
				c1.361,0.215,2.124,2.261,3.299,1.879c-0.832-0.734-1.057-2.085-1.419-3.289c-2.604,2.711-6.049-1.928-5.158-4.934
				c2.378,0.353,4.042,1.429,5.873,2.349c0.342,3.886,1.008,7.439,4.698,7.987c0.567-2.917-1.194-4.757-1.185-6.343
				c0.871,0.626,1.047,1.938,1.879,2.584c0.02-0.861,1.263-1.703,0.479-2.584c-0.842,0.597-2.358-0.146-2.828-0.705
				c-0.931-3.484,1.889-5.129,3.993-6.343c0.939,4.209-0.852,8.594-1.165,11.511c0.401-0.695,0.343-1.84,1.4-1.879
				c-0.539,1.096-1.067,2.212-1.4,3.524c1.194,0.411,2.937,2.652,3.515,2.114c-0.147-2.653,1.321-3.7,2.584-4.933
				c-0.226-2.212-0.167-5.256,1.174-6.578c1.664,2.045,4.082,2.907,3.759,5.873c-0.215,2.056-3.21,3.955-1.879,6.578
				c0.47,0.773,0.538-0.832,0.939,0c-0.519,0.656-1.126,1.224-1.399,2.114c2.906-2.104,4.521-5.491,5.158-9.866
				c2.594,0.01,3.475-1.693,5.872-1.879c0.187,0.822-0.704,1.771,0,2.349c0.549-2.124,2.976-3.602,4.229-4.229
				c0.265,2.985,1.058,7.732-2.818,7.282c-0.528,0.95-0.676,3.024-0.235,4.229c1.82-0.509,5.197-0.568,6.578,1.175
				c-0.901,1.527-3.201,1.654-3.759,3.523c2.085,0.206,1.83-1.938,3.533-2.114c-0.45,1.047-1.82,1.165-1.879,2.584
				c2.407,0.225,2.818-1.556,4.698-1.879c1.517,0.822,2.035,0.695,3.278,0.47c-1.458,1.468,1.498,1.527,1.654,2.819
				c-1.957,0.167-2.878,1.36-4.473,1.879c1.859,1.703,1.575,5.403,0.234,7.517c0.764-0.029,1.566-0.725,2.114-0.235
				c-0.234-3.837,3.309-3.896,7.058-3.759c-1.42,1.928-1.87,4.649-4.474,4.933c-1.526,0.167-3.523-1.801-4.933,0
				c0.205,0.812,1.615,0.431,1.879,1.175c-3.896,0.567-5.687,3.24-6.812,6.578c1.204,0.107,1.557-0.636,2.594-0.705
				c0.039-0.979-1.154-0.724-0.939-1.879c1.214-2.691,5.061-2.76,7.752-3.993c-0.039,1.36,0.039,2.623,0.695,3.289
				c0.353-1.546,0.92-3.808,2.358-3.523c0.069-0.46-0.322-0.46-0.479-0.705c1.42,0.313,1.185-1.008,2.114-1.174
				c1.106,1.018,1.019,3.22,1.88,4.463c2.417-3.67-3.534-7.419-0.695-11.511c5.755,1.938,3.396,10.767,0,13.625
				c1.497-0.372,2.212-1.547,3.749-1.879c-0.979,1.047-2.594,1.977-3.994,3.054c-1.282,0.999-3.21,2.242-3.054,3.289
				c5.002-0.088,5.257-4.923,10.111-5.168c1.458-0.724,1.928-2.447,2.809-3.758c0.128,0.861-0.831,2.085,0.471,2.114
				c0.733-0.049,0.401-1.165,0.47-1.879c1.263-1.703,5.402-1.351,7.057-0.235c-0.107,4.679-7.918,1.644-10.11,4.229
				c0.891,0.146,2.643-0.441,1.879,0.705c1.018,0.303,1.635-1.018,2.114-0.47c-0.127,1.047-1.097,1.253-2.35,1.174
				c-0.371,2.838-2.417,4.003-4.463,5.168c-1.058-0.274-1.85-0.802-3.289-0.705c-0.773,1.135,1.097,1.321,0.939,2.584
				c-1.154-0.088-1.184-1.312-1.644-2.114c-1.146,0.725-2.223,1.537-2.819,2.819c0.176,0.382,1.155-0.049,0.939,0.705
				c-1.781,1.038-3.611,2.026-5.393,3.054c1.047,0.587,1.663,1.615,3.044,1.879c0.146-0.725,0.068-1.664,0.939-1.645
				c0.9,1.664-1.214,3.436-0.226,5.168c1.742-2.241,2.34-5.647,5.394-6.577c-0.235-6.333,6.695-2.447,6.107,1.644
				c-2.946,0.264-3.455,2.966-7.047,2.584c-0.265-0.509-0.598-0.959-0.46-1.879c-1.36,0.206-1.851,1.292-2.114,2.584
				c0.479,0.753,1.536-0.44,1.879,0.235c-2.173,0.812-3.602,2.359-4.698,4.229c3.994,0.636,4.776-3.21,7.752-2.819
				c-0.558,2.114-3.484,1.85-4.238,3.759c1.635,0.225,1.88-0.939,3.299-0.939c-0.431,0.675-0.626,1.576-1.185,2.114
				c0.304,1.752-1.791,3.475-1.174,3.994c3.611,0.558,3.229-4.923,4.933-7.047c0.029,1.752-1.047,3.641-0.694,4.933
				c2.896-2.897,3.298-9.533,9.151-8.691c-0.939,2.339-1.37,5.207-3.759,6.107c-1.057,0.196-1.165-0.548-1.879-0.705
				c-1.41,1.958-3.739,4.248-4.934,5.638c2.065-0.676,5.197-1.537,7.292-1.41c-0.098,1.086-2.496-0.137-2.594,0.94
				c2.35,0.714,3.455,3.915,3.994,5.638c-3.847,0.694-6.255-2.075-8.927-3.054c-2.026-0.744-4.816-0.461-6.578-1.41
				c1.527,2.633,5.217,3.094,7.518,4.934c-2.35,0.088-0.304,6.567-3.044,7.047c-2.398-1.282-1.762-5.599-2.594-8.456
				c-0.989-0.362-0.029,1.213-0.705,1.174c-1.448-4.022-4.297-6.666-8.447-7.987c0.656,2.32,0.098,5.843,1.635,7.283
				c3.915-1.713,5.1,2.721,5.638,5.872c-2.721,0.069-4.502-0.812-5.873-2.114c-0.694-1.086,0.705-3.151-0.46-3.993
				c-0.597,1.84-0.264,4.601-0.714,6.577c1.419,1.566,3.269,2.692,3.993,4.934c-0.842-0.235-1.889-2.555-2.339-1.645
				c-0.157,2.428-1.674,3.494-3.055,4.698c-1.321-2.339-1.869-6.9,0.695-8.222c-1.957-2.34-5.922,0.567-7.752,0.47
				c0.577-2.241,1.487-4.16,2.584-5.873c-3.621-1.575-3.983-7.556-9.632-6.342c0.754-1.057,0.539-3.152-0.234-3.994
				c-4.385,0.695-6.9,3.279-8.691,6.577c0.107,14.624,0.519,28.934,2.594,41.58c-2.525-0.138-5.629,0.303-7.753-0.235
				c1.097-10.942,0.304-26.486,0.94-37.82c0.283-5.139-1.674-10.366-6.353-11.041c-1.38,1.312,0.558,4.708-0.695,5.873
				c-1.908-0.881-0.694-3.318-1.185-4.229c0.196,1.518-0.881,1.772-1.409,2.584c-0.234,1.664,0.382,3.689,0.235,4.463
				c-1.537-0.098-2.771-0.509-3.994-0.939c-2.104,0.842-3.954,3.024-3.523,5.638c-4.698-0.773-5.207,4.649-7.507,7.048
				c-1.664-1.067-2.183-2.888-2.359-5.873c0.303-1.027,1.723-0.939,2.124-1.879c-0.822-1.674-0.098-4.532-0.94-5.639
				c-1.106,0.549-0.107,2.232,0.235,2.819c-0.989,1.997-3.964,3.24-6.587,2.819c0.47-4.082,3.709-5.374,7.047-6.578
				c-0.734-2.084,1.067-4.659,0.245-6.812c-4.258,1.703-7.517,4.395-8.692,9.162c-0.146-0.999,0.167-1.547,0.225-2.35
				c-0.881,0.127-1.057,0.979-1.644,1.409c1.634,2.428-0.03,6.167-1.879,7.283c-1.224-1.743-2.574-4.679-1.175-7.048
				c-0.607,0.068-1.008-0.088-0.939-0.705c3.631,0.029,5.413-1.791,6.812-3.993c-6.969-0.157-9.015,4.601-15.739,4.698
				c0.108-4.933,7.214-8.065,6.343-1.879c0.744-1.214,2.486-1.429,3.063-2.819c-2.085-1.047-5.286-0.989-7.057-2.349
				c2.359,0.157,5.012,1.253,6.578,1.41c-1.703-1.889-3.622-3.583-4.933-5.873c-0.294,0.568-0.959,0.764-1.645,0.94
				c-2.261-0.861-3.152-3.103-3.749-5.638c2.173-0.45,4.15,0.891,5.873,1.645c0.754-1.038,1.038-2.555,2.574-2.819
				c-1.008-2.428-3.68-3.21-3.514-6.812c-1.449,0.039-2.339,0.489-2.359-1.175c1.086-0.215,1.135,0.587,2.114,0.47
				c0.353-1.135-1.077-0.489-0.939-1.409c1.106-0.235,0.783,0.949,1.879,0.705c0.029-1.038-0.979-1.047-1.41-1.645
				c-3.269,2.271-6.431-0.606-8.222-2.584c0.264,2.457,2.476,4.356,2.584,7.047c0.107,2.545-1.635,5.295-1.879,8.222
				c-0.392,4.796,1.204,9.162,1.175,14.095c4.268,2.73,7.008,7.468,11.275,10.336c5.041,3.377,11.07,5.168,16.454,8.457
				c4.405-3.504,9.329-6.479,15.259-8.457c0.725,11.423,0.783,23.501,1.42,35.002c5.794,0,11.589,0,17.383,0
				c-0.332-11.491-0.852-22.796-1.184-34.297c5.139,3.015,9.925,6.372,15.044,9.396c8.633-2.477,17.599-4.63,26.545-6.812
				c1.116-3.396,2.721-6.832,4.219-10.571C182.081,131.356,184.225,127.334,184.724,123.908z M170.639,133.305
				c-1.438-0.999,0.842-2.652,0.46-3.289c-1.047,0.676-2.966,0.47-3.758,1.409C168.877,131.464,169.543,133.607,170.639,133.305z
				 M167.341,107.229c-0.157,1.038,1.399,1.566,2.124,0.94c-0.49-0.137-0.803-0.45-0.94-0.94
				C168.123,107.229,167.731,107.229,167.341,107.229z M165.227,107.699c2.701,0.186,3.151-3.113,3.993-3.994
				C167.781,104.792,165.197,105.917,165.227,107.699z M165.706,135.653c0.146-0.567-1.126-0.881-1.175-0.47
				C164.806,135.448,164.952,135.859,165.706,135.653z M163.592,108.169c-0.216,0.607,1.321,1.155,1.175,0.235
				C164.806,107.895,163.925,108.296,163.592,108.169z M162.407,125.317c0.676,0.049,1.282,0.029,1.185-0.705
				C163.033,124.691,162.573,124.857,162.407,125.317z M161.938,125.552c-3.083,0.108-5.834-1.36-8.917-0.47
				c2.124,1.165,4.042,2.525,6.577,3.289C160.538,127.588,161.575,126.903,161.938,125.552z M161.712,104.175
				c-0.861-1.018-1.096-2.838-1.419-3.758c-1.214,3.161-3.357,5.403-5.394,7.752c2.036,0.088,2.614-1.292,4.219-1.645
				c-0.675,1.272-2.477,1.439-2.584,3.289C158.903,108.58,160.763,106.838,161.712,104.175z M157.954,123.203
				c2.261-0.078,2.985-2.946,2.818-4.698c-0.655,0.45-1.556,0.646-2.114,1.175c0.147,0.949,0.999,1.184,0.939,2.349
				C158.756,122.136,158.306,122.626,157.954,123.203z M153.96,114.747c1.175,0.744,3.612,1.106,4.219-0.47
				C157.072,113.875,153.96,112.152,153.96,114.747z M153.96,111.458c1.508-0.059,2.301-2.075,2.34-2.819
				C155.145,109.207,154.42,110.205,153.96,111.458z M152.541,123.438c0.725,0.235,2.623,0.509,3.299,0
				c-2.114-1.958-3.104-5.041-4.474-7.752c-1.243-0.068-2.212,0.127-2.339,1.175c0.714,0.01,1.654-0.686,1.634,0.47
				c0.04,0.509-0.831,0.107-1.174,0.235C150.887,118.926,154.655,120.825,152.541,123.438z M152.541,111.223
				c0.783-1.263,2.457-2.868,1.879-4.698c-0.988,0.969-2.085,1.831-2.574,3.289C152.874,109.48,152.482,110.586,152.541,111.223z
				 M153.96,140.821c-0.283-2.064,0.656-5.363-0.714-6.342C152.198,136.045,151.592,140.264,153.96,140.821z M149.967,94.779
				c0.176-3.015,3.71-4.512,3.514-6.107c-0.294-0.01-0.323-0.294-0.695-0.235c-2.534,2.564-4.845,5.334-5.638,9.632
				c1.605,0.206,2.222-0.587,3.044-1.175C150.446,96.081,149.928,95.396,149.967,94.779z M153.48,116.156c0-0.392,0-0.783,0-1.174
				c-0.234,0-0.46,0-0.695,0c0,0.558-0.41,0.695-0.244,1.409C152.991,116.45,153.06,116.126,153.48,116.156z M154.186,98.068
				c-1.165,0.734-3.221,0.47-4.464,0c-0.852,0.646-0.303,2.222-0.234,3.289C150.975,100.338,153.529,99.135,154.186,98.068z
				 M152.071,136.358c0.234-1.302,1.957-3.642,0.234-4.698c-0.509,1.997-3.67,1.341-3.758,3.759
				C150.133,134.597,151.053,135.898,152.071,136.358z M151.366,113.337c0.01-0.392,0.773-1.713-0.234-1.645
				C151.2,112.397,150.476,113.122,151.366,113.337z M152.306,88.201c-0.92-0.186-1.703-0.9-1.174-1.879
				c-0.695,0.088-1.155,0.411-1.41,0.939c0.431-0.01,1.508,0.499,0.939,0.705c-1.252,0-2.505,0-3.748,0
				c0.44,1.429,0.098,5.638,0.234,5.873C148.4,91.5,151.062,90.56,152.306,88.201z M148.087,109.108
				c0.157-0.93,0.588-1.595,0.461-2.819c-1.42,0.068-1.664,1.312-2.114,2.349C147.412,108.375,147.354,109.138,148.087,109.108z
				 M148.312,134.714c0.117-2.153-0.333-4.874,0.47-6.343c-1.84-0.509-2.261-2.427-3.993-3.054c0.44,2.555-1.831,2.388-2.574,3.759
				C144.446,130.75,145.846,133.275,148.312,134.714z M146.913,117.565c-0.01,1.038,1.458,0.254,1.399-0.235
				C147.735,117.301,147.187,117.301,146.913,117.565z M148.087,115.686c0.206-0.695,1.019-2.144-0.234-2.349
				C147.706,114.257,146.942,115.383,148.087,115.686z M148.087,111.927c-1.732-0.421-3.151,1.527-1.889,2.584
				C146.541,113.366,147.471,112.809,148.087,111.927z M146.434,97.833c-0.313-1.498,1.585-2.016,0.714-3.289
				c-0.773,1.272-2.251,1.831-2.828,3.289c-0.099,0.891,0.499,1.077,0.939,1.41c0.107-0.959-0.216-1.507-0.47-2.114
				c0.47,0.068,0.47-0.313,0.704-0.47C145.846,97.011,145.914,97.647,146.434,97.833z M147.147,124.613c-0.636,0-1.253,0-1.889,0
				c0.273,0.832,0.704,1.498,1.889,1.409C146.933,125.337,146.933,125.298,147.147,124.613z M146.913,122.029
				c-0.362-0.812-0.431-1.918-1.185-2.349c-0.245,1.478-2.056,1.38-2.574,2.584C144.329,122.802,145.787,122.264,146.913,122.029z
				 M143.614,89.376c0.91-1.684,2.231-3.769,2.114-4.698c-1.859,2.985-4.434,5.266-5.628,8.927
				C141.686,92.958,142.724,91.05,143.614,89.376z M142.215,107.464c0.46-2.976,3.445-3.436,2.818-7.518
				c-2.368-0.979-6.509,2.085-4.238,3.524c-0.078-0.861,0.362-1.204,0.94-1.41c0.186,1.987-1.253,2.349-0.94,4.463
				C141.441,106.671,141.383,107.513,142.215,107.464z M144.094,96.188c1.752,0.274,1.801-1.175,2.574-1.879
				C145.308,94.437,144.524,95.141,144.094,96.188z M142.909,95.014c0.421-0.675,1.899-0.293,1.645-1.644
				c-0.881,0.186-1.115-0.284-1.879-0.235c-0.637,0.539-1.302,1.038-1.88,1.645c0.861,0.734,1.282-0.46,1.88-0.705
				C143.252,94.387,142.42,94.945,142.909,95.014z M144.789,75.751c-1.664,0.343-1.302-1.351-1.88-2.114
				c-0.489,2.173-3.229,4.375-5.168,2.349c0.108,0.891-0.606,1.674,0,2.349c1.136,0.039,1.019-1.184,2.359-0.939
				c-0.147,0.636-0.989,0.587-0.939,1.409c1.145,0.255,1.957,0.861,2.339,1.879C143.771,80.205,143.203,76.906,144.789,75.751z
				 M143.85,112.867c-0.549,0-1.097,0-1.635,0c0.392,1.135-0.147,1.82,0,3.289C143.967,116.273,143.096,113.758,143.85,112.867z
				 M143.379,108.169c0.05-0.666,0.03-1.282-0.704-1.175c0.098,0.568-0.421,0.509-0.235,1.175
				C142.753,108.169,143.076,108.169,143.379,108.169z M141.735,111.927c0.078-0.323,1.066-1.409,0-1.409
				C141.999,111.125,141.03,111.644,141.735,111.927z M141.735,86.792c-0.235,0-0.46,0-0.695,0
				c-0.176,0.597-0.637,2.378,0.235,2.584C141.167,88.26,141.607,87.683,141.735,86.792z M141.5,99.712
				c-0.959-0.47-2.28-0.176-2.584,0.705C139.993,100.397,141.354,100.652,141.5,99.712z M136.802,119.68
				c1.978-0.294,4.17-0.382,4.238-2.584C139.444,117.781,136.567,117.174,136.802,119.68z M138.916,85.852
				c0.166-0.548,1.233-0.176,0.939-1.174c-0.313,0-0.616,0-0.939,0C139.229,85.265,138.397,85.823,138.916,85.852z M139.386,106.29
				c0.861,0.157,0.93-0.479,0.939-1.174c-0.293-0.01-0.322-0.294-0.704-0.235C139.797,105.604,139.22,105.575,139.386,106.29z
				 M136.802,95.014c2.917-0.225,3.211-4.307,2.584-7.282c-0.528,1.977-1.957,3.054-2.584,4.933c0.881,0.196,1.518-1.067,1.879,0
				c-0.871-0.02-0.704,1.018-1.879,0.705C136.802,93.917,136.802,94.466,136.802,95.014z M137.741,121.089
				c0.088,0.705,0.812,1.478,1.42,0.94C139.014,121.393,138.515,121.108,137.741,121.089z M138.221,84.678
				c0.196-0.274,0.304-0.626,0.226-1.175c-0.323,0.01-0.509-0.107-0.705-0.235C137.751,83.895,137.614,84.658,138.221,84.678z
				 M138.221,110.988c0.51,0.9,1.498,1.321,2.34,1.879c-0.509-2.848-3.798-2.927-3.523-6.578c-2.056-0.02-2.506,1.566-2.584,3.524
				c1.174-0.196,2.378,0.45,1.653,1.409C137.066,111.409,137.311,110.86,138.221,110.988z M138.916,99.242
				c-0.382-0.392-0.431-1.125-0.939-1.41c-0.167,0.852-0.812,1.224-0.939,2.114C137.556,100.338,138.27,99.438,138.916,99.242z
				 M136.802,89.846c0.832,0.264,0.93-1.399,0.705-1.41C137.301,88.936,136.792,89.131,136.802,89.846z M137.507,87.027
				c-1.155-1.792,1.057-5.364-0.705-7.047c-1.175,1.409-2.75,2.417-3.289,4.463C135.774,84.228,136.43,86.86,137.507,87.027z
				 M135.402,91.96c0.646,0.167,0.988-1.165,0.46-1.41C135.735,91.04,135.284,91.226,135.402,91.96z M135.862,106.055
				c0.049-0.529-0.793-1.37-0.939-0.939c0.528,0.029,0.107,0.998,0.244,1.409C135.627,106.593,135.627,106.211,135.862,106.055z
				 M135.627,113.102c-0.509,0.039-0.098-0.832-0.225-1.175c-0.842-0.049-1.233,0.343-1.175,1.175
				C134.824,112.848,135.344,113.816,135.627,113.102z M135.402,115.686c0-0.392,0-0.783,0-1.174c-0.235,0-0.479,0-0.715,0
				c0,0.235,0,0.47,0,0.705c-0.294-0.01-0.323-0.304-0.705-0.235C133.855,115.823,134.678,115.696,135.402,115.686z
				 M134.453,105.585c0-0.548,0-1.096,0-1.645c-1.185,0.215-1.831,0.989-2.35,1.879C133.111,105.957,133.66,105.653,134.453,105.585
				z M136.106,123.438c-1.918-4.336-7.047,0.607-6.117,3.994C131.996,126.071,134.609,125.317,136.106,123.438z M133.748,94.074
				c0.068-1.429,0.764-2.212,0.939-3.524c-0.343-0.519-0.616-1.096-1.645-0.939c0.108,1.429-0.538,2.124-0.939,3.054
				C133.102,92.694,132.71,94.094,133.748,94.074z M133.043,101.591c0.989,0.127,1.596-0.127,2.124-0.47
				c-2.31-5.423-6.744,2.985-6.812,6.343c2.065-0.362,2.702-2.144,3.054-4.229c0.892,0.509,1.263-0.294,2.104-0.47
				C133.982,101.885,132.31,101.973,133.043,101.591z M132.809,93.604c-0.559,0.098-0.509-0.431-1.175-0.235
				c0.431,4.179-3.093,4.414-3.279,7.987C130.704,99.634,132.162,97.03,132.809,93.604z M131.164,92.43
				c0.215-1.507,1.596-1.85,1.409-3.758c-0.049-0.265-0.254-0.362-0.47-0.47C131.829,89.493,130.312,90.795,131.164,92.43z
				 M132.104,119.21c-0.616,0.068-0.176-0.911-0.939-0.705c-0.499,1.458-2.584,2.574-1.635,4.698
				C129.97,121.461,131.819,121.118,132.104,119.21z M131.869,84.443c0-0.47,0-0.94,0-1.41c-1.674,0.127-2.164,1.429-3.759,1.645
				c0,0.558,0.411,0.695,0.244,1.409c0.637,0.147,1.86-0.293,2.114,0.235c-0.558,0-1.096,0-1.654,0
				c0.294,1.36,1.253,2.036,1.88,3.054c-0.255-2.359,1.546-4.463-0.226-5.638C131.359,83.552,131.184,84.433,131.869,84.443z
				 M130.929,83.033c0.411-0.235,0.812-1.674,0.235-2.114C131.311,81.663,129.627,82.642,130.929,83.033z M130.694,79.745
				c-0.725,0.029-1.116-0.284-1.645-0.47c0.088,2.036-1.771,2.144-1.409,4.463C129.833,83.572,130.508,81.908,130.694,79.745z
				 M129.05,117.096c-0.088-1.978,1.468-2.291,1.419-4.229c-0.891-0.176-1.125,0.293-1.889,0.235
				C128.678,113.64,128.169,116.596,129.05,117.096z M127.641,78.1c0.225,0.714-0.5,2.388,0.47,2.349
				C127.885,79.735,128.619,78.071,127.641,78.1z M128.354,88.671c-0.039-0.901-0.528-1.351-1.184-1.645
				C127.278,87.869,128.021,88.055,128.354,88.671z M125.291,111.223c0.47,0,0.939,0,1.409,0c-0.509-1.057-0.156-2.976-0.939-3.758
				c-0.264,1.233-1.684-0.137-2.104,0.939C124.655,108.795,125.604,110.283,125.291,111.223z M127.171,89.611
				c-0.03-0.754-0.529-1.028-1.41-0.939C125.771,89.444,126.437,89.572,127.171,89.611z M125.536,86.322
				c0.969,0.431,1.409-1.664,0.46-1.645C126.23,85.617,125.301,85.392,125.536,86.322z M125.761,96.423
				c-0.186-0.812,0.353-0.9,0.235-1.645c-0.44,0.059-0.509-0.264-0.939-0.235C125.086,95.386,125.174,96.159,125.761,96.423z
				 M125.996,122.264c0.039-2.467,0.587-6.264-2.34-4.463C124.821,118.896,124.685,121.304,125.996,122.264z M125.996,103.706
				c0.293-3.661-2.192-4.532-3.054-7.047c0.186,0.803-0.95,0.303-0.705,1.174c1.037,1.743,0.294,2.888-0.235,4.698
				c0.48,0,0.94,0,1.42,0c0.039-0.685-0.832-1.654-0.245-2.114C123.676,101.963,124.381,103.285,125.996,103.706z M125.996,83.033
				c-1.155-0.039-1.664,0.94-1.175,1.879C125.644,84.717,125.702,83.758,125.996,83.033z M124.596,89.846
				c0.011-2.516-1.399-3.622-3.054-4.463c-0.068,0.803-1.066,0.666-1.419,1.175c0.156,1.498,0.284,3.005,0.939,3.993
				c0.949-0.146,0.783-1.409,1.645-1.644C123.344,89.209,123.549,89.954,124.596,89.846z M124.361,95.014
				c-0.098-2.095-0.294-4.101-1.419-5.168C122.012,91.647,122.619,94.495,124.361,95.014z M121.768,121.089
				c-0.117,1.312,1.409,2.193,2.349,1.645c-0.685-0.245-0.812-1.057-1.174-1.645C122.561,121.089,122.159,121.089,121.768,121.089z
				 M123.422,112.163c0.137-0.959-1.86-1.351-2.124-0.47C122.091,111.751,122.59,112.867,123.422,112.163z M123.422,85.382
				c-0.852,0.137-0.01-1.399-0.939-1.174C121.992,84.511,122.766,86.263,123.422,85.382z M120.358,118.505
				c1.076-0.675,1.762,1.674,2.818,0.94c-0.93-1.821-3.142-2.349-4.688-0.705c-0.225-0.587,0.832-1.419-0.244-1.409
				c-0.167,0.528-1.312,0.098-1.88,0.235c1.36,1.439,3.015,3.661,5.638,3.054C121.982,119.396,120.104,120.012,120.358,118.505z
				 M119.418,108.874c1.459,0.304,1.605,2.79,3.524,1.879c-1.282-3.328-4.483-4.747-8.213-5.638c0.216,1.948-1.008,3.69-0.714,4.933
				c1.164-1.576,3.416-2.065,5.872-2.349C119.79,108.149,119.389,108.296,119.418,108.874z M121.062,103.471
				c-0.127,1.233,0.02,3.426,1.175,2.584C121.278,105.771,121.875,103.911,121.062,103.471z M121.298,93.37
				c0-3.123-3.113-3.142-4.688-4.698c0.959,0.059,1.321,0.714,2.339,0.705c-0.244-2.31-4.209-2.525-3.759,0.47
				C117.108,91.147,119.086,92.371,121.298,93.37z M118.488,113.572c1.272-0.186,1.752-2.231,1.175-3.523
				c-0.304-0.01-0.333-0.294-0.715-0.235c-0.049,3.396-3.142,3.749-3.993,6.342c0.567,0.969,2.026,1.331,3.289,0.94
				C118.459,116.019,119.007,114.688,118.488,113.572z M119.418,97.128c0.744,0.108,2.389-0.685,2.584-1.879
				c-0.92-0.881-1.879-1.723-3.278-2.114C118.724,94.701,119.497,95.494,119.418,97.128z M119.418,87.966
				c-0.166-0.714,0.245-0.852,0.245-1.409c-0.998-0.029-1.194-0.842-1.879-1.175C117.843,86.723,118.332,87.653,119.418,87.966z
				 M117.304,98.068c0.431-1.547,1.087-3.808,0.48-5.638c-0.666,0.245-1.615-0.382-1.654,0c1.263,0.871-0.216,2.438-0.46,3.289
				C116.423,96.286,116.021,98.019,117.304,98.068z M113.076,120.854c0.558,1.703,4.062,2.76,5.872,1.645
				C116.814,122.136,115.787,120.658,113.076,120.854z M116.834,103.236c-1.145-0.646-1.321-2.271-2.584-2.819
				C114.221,102.257,115.581,102.697,116.834,103.236z M115.189,99.712c0.725-1.488-0.195-3.191-0.939-3.993
				c-0.283,0.656-1.438,0.44-2.339,0.47C112.615,97.754,113.213,99.428,115.189,99.712z M117.069,124.848
				c-0.822,0.695-3.837,1.145-4.698,2.584c1.341-0.245,1.224,0.979,2.358,0.939C115.17,126.854,116.247,125.983,117.069,124.848z
				 M112.851,125.083c0.891-0.519,2.477-0.343,3.044-1.174c-0.783-0.235-1.086-0.94-1.879-1.175
				C113.878,123.624,112.332,124.329,112.851,125.083z M114.25,106.055c0.206-1.057-0.254-1.458-0.939-1.645
				C113.311,105.281,113.418,106.035,114.25,106.055z M112.851,103.94c0.93-0.254,1.929-0.029,3.044,0.235
				c-2.163-1.585-3.798-3.709-6.343-4.933c-0.509,1.214-0.098,3.338-0.234,4.933c5.932-0.597,1.037,5.716,3.054,7.987
				c2.241-2.624-0.216-7.224,0-9.867C112.469,102.913,112.498,103.588,112.851,103.94z M108.857,88.671
				c0.636,1.556,3.044,2.594,4.689,2.349c-0.891-1.371-1.684-2.849-3.055-3.759C110.521,88.309,109.356,88.162,108.857,88.671z
				 M112.615,83.268c0-0.392,0-0.783,0-1.174c-0.45-0.049-0.519,0.264-0.939,0.235C111.695,82.926,112.009,83.239,112.615,83.268z
				 M110.962,115.216c0.234,0.646,1.164,1.811,1.653,1.409C111.999,116.225,112.175,115.021,110.962,115.216z M110.257,84.678
				c0.773,0.949,1.693,2.281,2.358,1.879c-0.782-2.741-2.016-6.284-4.473-6.578C108.534,82.094,109.141,83.297,110.257,84.678z
				 M111.911,99.007c0.117-1.057-0.196-1.693-0.949-1.879C110.893,98.146,110.952,99.027,111.911,99.007z M106.038,124.378
				c2.183,0.274,4.757,3.709,6.812,1.174c-2.907-0.235-4.551-1.713-4.708-4.698c-2.242,0.264-3.925,1.077-4.463,3.054
				c2.976,0.479,3.259,3.641,4.463,5.873c0.215-0.412,0.832-0.431,1.175-0.705C109.787,125.954,106.459,126.619,106.038,124.378z
				 M108.377,118.035c0.862,0.548,2.926,1.605,3.994,0.47c-1.527-0.431-2.849-2.31-3.994-2.349c0.421,1.214-1.576,2.017-2.339,2.819
				c0.744,0.04,1.028,0.539,1.879,0.47C108.505,119.004,107.418,118.231,108.377,118.035z M110.491,114.512
				c0.069-0.764-0.273-1.126-0.939-1.175C109.454,114.14,109.63,114.678,110.491,114.512z M109.317,115.686
				c0.078,0.499,1.047,1.282,1.174,0.939C109.953,116.469,110.315,115.393,109.317,115.686z M111.196,131.19
				c-1.194-0.127-0.783-1.879-2.114-1.879c-0.617,1.498-1.928,2.3-2.819,3.524c1.312-0.128,1.214,1.135,1.654,1.879
				C109.581,134.117,110.57,132.835,111.196,131.19z M109.317,113.337c0.362-0.852-0.862-1.302-1.175-0.705
				C108.515,112.896,108.632,113.396,109.317,113.337z M108.612,88.906c0.284-0.999-1.771-0.861-2.114-0.47
				c0.989,0.812,0.822,2.79,1.419,3.994c0.392-0.538,0.871-0.999,0.939-1.879c-0.245-0.617-0.939-0.792-1.184-1.409
				C108.29,88.867,108.69,89.865,108.612,88.906z M108.143,104.645c0-1.174,0-2.349,0-3.523c-0.9,0.127-0.959-0.597-1.645-0.705
				c0.167,1.791-0.411,4.326,0.479,5.403C107.085,105.145,107.369,103.94,108.143,104.645z M107.917,112.163
				c-0.323-0.852-0.421-1.928-1.654-1.879C106.195,111.536,106.743,112.163,107.917,112.163z M107.673,94.779
				c-0.235-2.741-2.31-3.641-3.749-5.168c0.186,1.292-0.597,1.605-0.479,2.819C104.247,93.83,106.253,94.006,107.673,94.779z
				 M105.324,98.303c0.137-1.361,1.409-1.576,1.174-3.289c-1.174,0.079-1.292-0.891-2.574-0.705
				C103.943,96.09,104.413,97.422,105.324,98.303z M106.263,83.033c-1.038,0.108-1.703-0.167-2.339-0.47
				c0.323,2.281-2.231,1.693-3.054,2.819c2.32,1.586,4.003,5.08,6.107,6.108c-0.059-1.361-1.615-3.171-0.939-3.759
				c-1.086-0.793-1.879-1.879-2.594-3.054c0.353,0,1.928,0.088,1.174-0.235c-0.528,0.068-0.881-0.059-0.939-0.47
				C104.746,83.865,105.862,83.797,106.263,83.033z M105.803,137.063c-3.543,0.02-2.427-4.63-4.698-5.873
				c-0.353,1.977-0.431,4.913,0.225,6.577c0.724-0.166,0.46-0.166,1.175,0c0.401,0.783,0.666,1.693,1.174,2.35
				C103.953,138.658,105.412,138.395,105.803,137.063z M104.149,112.632c0.127,0.852,0.783,2.055,1.654,1.409
				C105.676,113.151,104.883,112.926,104.149,112.632z M105.324,105.115c-0.206-1.772,1.292-3.974-0.235-4.934
				c0.323,2.007-1.987,2.496-3.524,1.879C102.152,103.754,104.501,103.676,105.324,105.115z M105.559,108.404
				c-0.343-1.85-1.429-4.199-2.819-4.229C103.816,105.448,104.042,107.582,105.559,108.404z M103.679,133.069
				c0.293-0.773-0.822-1.331-0.939-0.939C103.219,132.276,102.808,133.324,103.679,133.069z M102.984,116.156
				c2.486-1.713,0.059-7.174-2.819-6.342C101.271,111.751,101.751,114.335,102.984,116.156z M102.27,117.565
				c-0.714,0.176-0.685-0.401-1.399-0.235c0,0.558-0.411,0.695-0.245,1.409c0.411-0.02,0.734,0.059,0.939,0.235
				C101.79,118.495,102.044,118.045,102.27,117.565z M101.565,129.311c0.754,0.206,0.734-0.372,1.175-0.47
				c-0.059-0.881-0.362-1.507-0.94-1.879C101.878,127.901,101.389,128.273,101.565,129.311z M95.927,111.223
				c1.556,0.881,1.771,3.093,4.238,3.054C99.745,112.417,97.336,111.311,95.927,111.223z M99.93,111.927
				c0.127-1.409-2.222-2.388-2.819-0.939C98.09,111.252,98.795,111.81,99.93,111.927z M99.216,108.874c0-0.313,0-0.626,0-0.939
				C98.315,107.748,98.315,109.06,99.216,108.874z M97.111,115.216c0.901,0.186,0.901-1.125,0-0.94
				C97.111,114.59,97.111,114.903,97.111,115.216z M95.458,117.565c0.245-0.539,0.812-0.754,0.714-1.645
				c-0.685,0.029-1.546-0.127-1.879,0.235C93.862,116.704,94.772,117.418,95.458,117.565z M95.927,105.82
				c-0.871,0.235-0.773-1.693-1.41-0.94c0.969,0.265-0.176,1.008,0,1.879C95.222,106.671,95.683,106.358,95.927,105.82z
				 M93.118,117.331c0.068-1.321,0.127-2.643-1.419-2.349C91.846,116.087,92.267,116.929,93.118,117.331z M87.705,118.035
				c2.232,0.558,4.268,3.837,6.812,1.879c-1.498-1.39-3.005-2.78-4.698-3.994c0.479,0,0.94,0,1.419,0
				c0.01-1.351-0.587-2.075-1.654-2.349C88.87,114.972,87.578,115.794,87.705,118.035z M88.42,121.089
				c1.243,0.167,2.163,0.656,3.758,0.47c-1.801-1.282-4.865-4.63-6.812-1.645c0.578,3.337,1.498,7.585,5.628,6.578
				C89.35,125.641,88.106,123.125,88.42,121.089z M89.125,132.13c0.803,0.245,1.781-0.538,1.174-0.939
				C89.996,131.592,89.173,131.483,89.125,132.13z M85.826,107.934c1.038,1.008,2.036,3.298,3.759,2.819
				C88.919,109.393,87.118,107.905,85.826,107.934z M89.125,100.887c-0.734,0.235-0.92-1.243-1.419-0.47
				c0.5,0.215,0.088,1.331,0.715,1.409C88.488,101.347,89.046,101.366,89.125,100.887z M82.312,120.384
				c1.321,0.871,1.948,3.69,3.514,3.524c-0.646-0.92-0.763-2.359-0.705-3.994C84.191,120.081,82.527,119.503,82.312,120.384z"/>
			<path fill="#1A75BC" d="M184.724,101.122c-0.793,8.241,1.077,15.484,0,22.787c-0.499,3.426-2.643,7.448-3.993,10.806
				c-1.498,3.739-3.103,7.175-4.219,10.571c-8.946,2.183-17.912,4.336-26.545,6.812c-5.119-3.024-9.905-6.382-15.044-9.396
				c0.332,11.501,0.852,22.806,1.184,34.297c-5.794,0-11.589,0-17.383,0c-0.637-11.501-0.695-23.579-1.42-35.002
				c-5.931,1.978-10.854,4.953-15.259,8.457c-5.383-3.289-11.413-5.08-16.454-8.457c-4.268-2.868-7.008-7.605-11.275-10.336
				c0.029-4.933-1.566-9.299-1.175-14.095c0.245-2.927,1.987-5.677,1.879-8.222c-0.108-2.691-2.32-4.59-2.584-7.047
				c1.791,1.978,4.953,4.855,8.222,2.584c0.431,0.597,1.439,0.607,1.41,1.645c-1.096,0.245-0.773-0.939-1.879-0.705
				c-0.137,0.92,1.292,0.274,0.939,1.409c-0.979,0.118-1.027-0.685-2.114-0.47c0.02,1.664,0.91,1.214,2.359,1.175
				c-0.167,3.602,2.505,4.385,3.514,6.812c-1.537,0.264-1.82,1.781-2.574,2.819c-1.723-0.754-3.7-2.095-5.873-1.645
				c0.597,2.535,1.487,4.777,3.749,5.638c0.685-0.176,1.351-0.372,1.645-0.94c1.312,2.291,3.23,3.984,4.933,5.873
				c-1.566-0.157-4.219-1.253-6.578-1.41c1.771,1.36,4.972,1.302,7.057,2.349c-0.578,1.39-2.32,1.605-3.063,2.819
				c0.871-6.187-6.235-3.054-6.343,1.879c6.725-0.098,8.77-4.855,15.739-4.698c-1.4,2.202-3.181,4.022-6.812,3.993
				c-0.068,0.617,0.333,0.773,0.939,0.705c-1.399,2.369-0.049,5.305,1.175,7.048c1.85-1.116,3.514-4.855,1.879-7.283
				c0.587-0.431,0.763-1.282,1.644-1.409c-0.059,0.803-0.372,1.351-0.225,2.35c1.175-4.767,4.434-7.459,8.692-9.162
				c0.822,2.154-0.979,4.728-0.245,6.812c-3.338,1.204-6.578,2.496-7.047,6.578c2.623,0.421,5.599-0.822,6.587-2.819
				c-0.343-0.587-1.341-2.271-0.235-2.819c0.842,1.106,0.118,3.965,0.94,5.639c-0.401,0.939-1.821,0.852-2.124,1.879
				c0.176,2.985,0.695,4.806,2.359,5.873c2.3-2.398,2.809-7.821,7.507-7.048c-0.431-2.613,1.419-4.796,3.523-5.638
				c1.224,0.431,2.457,0.842,3.994,0.939c0.146-0.773-0.47-2.799-0.235-4.463c0.528-0.812,1.605-1.067,1.409-2.584
				c0.49,0.911-0.724,3.348,1.185,4.229c1.253-1.165-0.685-4.562,0.695-5.873c4.679,0.675,6.636,5.902,6.353,11.041
				c-0.637,11.334,0.156,26.878-0.94,37.82c2.124,0.538,5.228,0.098,7.753,0.235c-2.075-12.646-2.486-26.956-2.594-41.58
				c1.791-3.298,4.307-5.882,8.691-6.577c0.773,0.842,0.988,2.937,0.234,3.994c5.648-1.214,6.011,4.767,9.632,6.342
				c-1.097,1.713-2.007,3.632-2.584,5.873c1.83,0.098,5.795-2.81,7.752-0.47c-2.564,1.321-2.017,5.883-0.695,8.222
				c1.381-1.204,2.897-2.271,3.055-4.698c0.45-0.91,1.497,1.409,2.339,1.645c-0.725-2.241-2.574-3.367-3.993-4.934
				c0.45-1.977,0.117-4.737,0.714-6.577c1.165,0.842-0.234,2.907,0.46,3.993c1.371,1.302,3.152,2.184,5.873,2.114
				c-0.538-3.151-1.723-7.585-5.638-5.872c-1.537-1.439-0.979-4.963-1.635-7.283c4.15,1.321,6.999,3.964,8.447,7.987
				c0.676,0.039-0.284-1.536,0.705-1.174c0.832,2.857,0.195,7.174,2.594,8.456c2.74-0.479,0.694-6.959,3.044-7.047
				c-2.301-1.84-5.99-2.301-7.518-4.934c1.762,0.949,4.552,0.666,6.578,1.41c2.672,0.979,5.08,3.748,8.927,3.054
				c-0.539-1.723-1.645-4.924-3.994-5.638c0.098-1.077,2.496,0.146,2.594-0.94c-2.095-0.127-5.227,0.734-7.292,1.41
				c1.194-1.39,3.523-3.681,4.934-5.638c0.714,0.157,0.822,0.9,1.879,0.705c2.389-0.9,2.819-3.769,3.759-6.107
				c-5.854-0.842-6.255,5.794-9.151,8.691c-0.353-1.292,0.724-3.181,0.694-4.933c-1.703,2.124-1.321,7.605-4.933,7.047
				c-0.617-0.519,1.478-2.241,1.174-3.994c0.559-0.538,0.754-1.438,1.185-2.114c-1.419,0-1.664,1.165-3.299,0.939
				c0.754-1.909,3.681-1.645,4.238-3.759c-2.976-0.391-3.758,3.456-7.752,2.819c1.097-1.87,2.525-3.416,4.698-4.229
				c-0.343-0.675-1.399,0.519-1.879-0.235c0.264-1.292,0.754-2.378,2.114-2.584c-0.138,0.92,0.195,1.37,0.46,1.879
				c3.592,0.382,4.101-2.32,7.047-2.584c0.588-4.091-6.343-7.977-6.107-1.644c-3.054,0.93-3.651,4.336-5.394,6.577
				c-0.988-1.732,1.126-3.504,0.226-5.168c-0.871-0.02-0.793,0.92-0.939,1.645c-1.381-0.264-1.997-1.292-3.044-1.879
				c1.781-1.028,3.611-2.016,5.393-3.054c0.216-0.754-0.764-0.323-0.939-0.705c0.597-1.282,1.674-2.094,2.819-2.819
				c0.46,0.803,0.489,2.026,1.644,2.114c0.157-1.263-1.713-1.449-0.939-2.584c1.439-0.098,2.231,0.431,3.289,0.705
				c2.046-1.165,4.092-2.33,4.463-5.168c1.253,0.079,2.223-0.127,2.35-1.174c-0.479-0.548-1.097,0.773-2.114,0.47
				c0.764-1.146-0.988-0.558-1.879-0.705c2.192-2.584,10.003,0.45,10.11-4.229c-1.654-1.116-5.794-1.468-7.057,0.235
				c-0.068,0.714,0.264,1.83-0.47,1.879c-1.302-0.029-0.343-1.253-0.471-2.114c-0.881,1.312-1.351,3.034-2.809,3.758
				c-4.854,0.245-5.109,5.08-10.111,5.168c-0.156-1.047,1.771-2.291,3.054-3.289c1.4-1.077,3.015-2.006,3.994-3.054
				c-1.537,0.333-2.252,1.507-3.749,1.879c3.396-2.858,5.755-11.687,0-13.625c-2.839,4.091,3.112,7.84,0.695,11.511
				c-0.861-1.243-0.773-3.445-1.88-4.463c-0.93,0.167-0.694,1.488-2.114,1.174c0.157,0.245,0.549,0.245,0.479,0.705
				c-1.438-0.284-2.006,1.977-2.358,3.523c-0.656-0.666-0.734-1.928-0.695-3.289c-2.691,1.233-6.538,1.302-7.752,3.993
				c-0.215,1.155,0.979,0.901,0.939,1.879c-1.037,0.069-1.39,0.812-2.594,0.705c1.126-3.338,2.917-6.01,6.812-6.578
				c-0.264-0.744-1.674-0.362-1.879-1.175c1.409-1.801,3.406,0.167,4.933,0c2.604-0.284,3.054-3.005,4.474-4.933
				c-3.749-0.137-7.292-0.078-7.058,3.759c-0.548-0.49-1.351,0.206-2.114,0.235c1.341-2.114,1.625-5.814-0.234-7.517
				c1.595-0.519,2.516-1.713,4.473-1.879c-0.156-1.292-3.112-1.351-1.654-2.819c-1.243,0.225-1.762,0.352-3.278-0.47
				c-1.88,0.323-2.291,2.104-4.698,1.879c0.059-1.419,1.429-1.537,1.879-2.584c-1.703,0.176-1.448,2.32-3.533,2.114
				c0.558-1.87,2.857-1.997,3.759-3.523c-1.381-1.743-4.758-1.684-6.578-1.175c-0.44-1.204-0.293-3.279,0.235-4.229
				c3.876,0.45,3.083-4.297,2.818-7.282c-1.253,0.626-3.68,2.104-4.229,4.229c-0.704-0.578,0.187-1.527,0-2.349
				c-2.397,0.186-3.278,1.889-5.872,1.879c-0.637,4.375-2.252,7.762-5.158,9.866c0.273-0.891,0.881-1.458,1.399-2.114
				c-0.401-0.832-0.47,0.773-0.939,0c-1.331-2.623,1.664-4.522,1.879-6.578c0.323-2.966-2.095-3.827-3.759-5.873
				c-1.341,1.321-1.399,4.365-1.174,6.578c-1.263,1.233-2.731,2.28-2.584,4.933c-0.578,0.538-2.32-1.703-3.515-2.114
				c0.333-1.312,0.861-2.428,1.4-3.524c-1.058,0.039-0.999,1.185-1.4,1.879c0.313-2.917,2.104-7.302,1.165-11.511
				c-2.104,1.214-4.924,2.858-3.993,6.343c0.47,0.558,1.986,1.302,2.828,0.705c0.783,0.881-0.46,1.723-0.479,2.584
				c-0.832-0.646-1.008-1.958-1.879-2.584c-0.01,1.586,1.752,3.426,1.185,6.343c-3.69-0.548-4.356-4.101-4.698-7.987
				c-1.831-0.92-3.495-1.997-5.873-2.349c-0.891,3.005,2.555,7.645,5.158,4.934c0.362,1.204,0.587,2.555,1.419,3.289
				c-1.175,0.382-1.938-1.664-3.299-1.879c1.566,2.985,5.854,3.24,6.578,7.047c-1.253,0.548-2.398,1.194-3.523,1.879
				c-0.313-1.086-0.343-2.477-0.695-3.524c-1.282,0.226-0.156,1.351-0.245,2.349c-1.086-0.548-1.164-2.114-1.634-3.289
				c-0.881,1.351,0.772,2.192,0.694,3.524c-2.085-0.284-1.194,2.408-3.288,2.114c2.926-5.452-2.35-9.083-5.638-11.275
				c-0.989,3.416,0.107,6.528,0.705,9.631c-2.085-0.264-2.702-1.987-3.994-3.054c0.372,1.518,1.557,2.212,2.829,2.819
				c-2.594,0.939-4.042-1.282-5.873-1.879c-1.145,0.098-2.202,1.713-3.054,1.879c-0.773,0.156-0.686-0.734-1.185-0.235
				c-0.45,0.46,0.861,1.399-0.47,1.409c1.312,0.812,3.044,1.194,3.769,2.584c-1.713,2.438-0.626,6.803,2.104,7.517
				c-1.312,0.686-2.134-1.145-3.993-0.705c0.372-3.808-3.27-3.612-6.578-3.758c0.47,2.006,1.664,4.747,4.229,4.933
				c1.703,0.127,3.445-1.664,4.943,0c-0.284,0.9-1.84,0.519-2.124,1.409c1.831,0.215,2.662-1.654,4.463-0.705
				c-0.431,1.762-2.212,2.173-2.584,3.994c-1.057-1.439-2.721-2.281-4.229-3.289c-1.165,3.162,0.499,7.253,3.289,7.987
				c-0.666,0.724-1.448-0.411-2.349-0.235c0.059,1.438,0.861,2.124,0.715,3.758c-2.251,0.049-0.686-2.966-0.94-4.463
				c-0.959,0.137-0.176,2.026-0.939,2.349c-1.645-1.498-2.467-3.808-4.473-4.933c-0.548,1.801-1.527,3.171-2.114,4.933
				c-1.723-3.837,3.201-7.116,1.175-11.276c-6.01,1.194-3.994,10.934-0.46,13.39c-1.409-0.088-2.77-2.241-4.708-2.584
				c0.176,2.417,5.237,1.977,5.403,5.168c1.585,0.137,2.877,0.578,2.819,2.349c-2.663-0.225-3.69-2.095-4.933-3.758
				c-3.827-1.018-7.086-2.614-8.222-6.343c-0.617,0.372,0.861,2.868-0.705,2.819c0.186-0.499,0.578-1.312,0.235-1.645
				c-1.723-1.958-5.53-1.252-7.987-0.47c-0.157-1.165-0.812-1.84-0.94-3.054c2.888-1.38,6.147-1.693,8.692-3.289
				c1.938-1.204,3.827-3.896,5.638-5.873c5.266-5.716,10.845-12.489,14.339-19.732c5.648-2.447,11.511-4.444,17.854-6.812
				c1.996-0.744,4.198-2.251,5.872-2.349c1.978-0.108,4.454,1.272,6.578,1.879c2.192,0.626,4.492,1.507,6.567,1.879
				c2.623,0.47,7.586-0.059,10.571,0.94c1.85,0.617,5.1,4.307,7.047,6.107C164.854,81.389,175.602,90.952,184.724,101.122z"/>
			<path fill="#49B648" d="M171.099,130.016c0.382,0.637-1.898,2.29-0.46,3.289c-1.096,0.303-1.762-1.841-3.298-1.88
				C168.133,130.485,170.052,130.691,171.099,130.016z"/>
			<path fill="#49B648" d="M169.465,108.169c-0.725,0.626-2.281,0.098-2.124-0.94c0.391,0,0.782,0,1.184,0
				C168.662,107.719,168.975,108.032,169.465,108.169z"/>
			<path fill="#49B648" d="M167.105,96.658c0.146,0.842-0.265,1.135-0.46,1.645c-0.715,0.01-0.235-1.175-0.93-1.175
				C165.96,96.991,166.42,96.893,167.105,96.658z"/>
			<path fill="#49B648" d="M169.22,103.706c-0.842,0.881-1.292,4.18-3.993,3.994C165.197,105.917,167.781,104.792,169.22,103.706z"
				/>
			<path fill="#49B648" d="M164.531,135.184c0.049-0.411,1.321-0.098,1.175,0.47C164.952,135.859,164.806,135.448,164.531,135.184z"
				/>
			<path fill="#49B648" d="M164.767,108.404c0.146,0.92-1.391,0.372-1.175-0.235C163.925,108.296,164.806,107.895,164.767,108.404z"
				/>
			<path fill="#49B648" d="M163.592,124.613c0.098,0.734-0.509,0.753-1.185,0.705C162.573,124.857,163.033,124.691,163.592,124.613z
				"/>
			<path fill="#49B648" d="M153.021,125.083c3.083-0.891,5.834,0.578,8.917,0.47c-0.362,1.351-1.399,2.036-2.34,2.819
				C157.062,127.608,155.145,126.247,153.021,125.083z"/>
			<path fill="#49B648" d="M160.293,100.417c0.323,0.92,0.558,2.74,1.419,3.758c-0.949,2.663-2.809,4.405-5.178,5.638
				c0.107-1.85,1.909-2.017,2.584-3.289c-1.604,0.353-2.183,1.732-4.219,1.645C156.936,105.82,159.079,103.578,160.293,100.417z"/>
			<path fill="#49B648" d="M160.772,118.505c0.167,1.752-0.558,4.62-2.818,4.698c0.352-0.577,0.802-1.067,1.644-1.174
				c0.06-1.165-0.792-1.4-0.939-2.349C159.217,119.151,160.117,118.955,160.772,118.505z"/>
			<path fill="#49B648" d="M158.179,114.276c-0.606,1.576-3.044,1.214-4.219,0.47C153.96,112.152,157.072,113.875,158.179,114.276z"
				/>
			<path fill="#49B648" d="M156.3,108.639c-0.039,0.744-0.832,2.76-2.34,2.819C154.42,110.205,155.145,109.207,156.3,108.639z"/>
			<path fill="#49B648" d="M155.84,123.438c-0.676,0.509-2.574,0.235-3.299,0c2.114-2.613-1.654-4.512-3.054-5.873
				c0.343-0.127,1.214,0.274,1.174-0.235c0.021-1.155-0.92-0.46-1.634-0.47c0.127-1.047,1.096-1.243,2.339-1.175
				C152.736,118.397,153.726,121.48,155.84,123.438z"/>
			<path fill="#49B648" d="M154.42,106.524c0.578,1.831-1.096,3.436-1.879,4.698c-0.059-0.636,0.333-1.742-0.695-1.409
				C152.335,108.355,153.432,107.494,154.42,106.524z"/>
			<path fill="#49B648" d="M153.246,134.479c1.37,0.979,0.431,4.277,0.714,6.342C151.592,140.264,152.198,136.045,153.246,134.479z"
				/>
			<path fill="#49B648" d="M152.306,104.88c0.568-0.166,1.028,0.793,1.361,0.343c-0.773,1.546-1.763,4.718-4.415,5.061
				c-0.146-1.478,1.292-1.371,1.654-2.349c-0.793-0.832-1.419,1.419-2.124,0.705c-0.166-1.106,0.265-1.615,0.245-2.584
				C150.29,105.839,151.758,105.82,152.306,104.88z"/>
			<path fill="#49B648" d="M153.48,88.671c0.196,1.595-3.338,3.093-3.514,6.107c-0.039,0.617,0.479,1.302,0.225,2.114
				c-0.822,0.587-1.438,1.38-3.044,1.175c0.793-4.297,3.104-7.067,5.638-9.632C153.157,88.377,153.187,88.662,153.48,88.671z"/>
			<path fill="#49B648" d="M153.48,114.981c0,0.392,0,0.783,0,1.174c-0.421-0.029-0.489,0.294-0.939,0.235
				c-0.166-0.714,0.244-0.852,0.244-1.409C153.021,114.981,153.246,114.981,153.48,114.981z"/>
			<path fill="#49B648" d="M149.722,98.068c1.243,0.47,3.299,0.734,4.464,0c-0.656,1.067-3.211,2.271-4.698,3.289
				C149.419,100.29,148.87,98.714,149.722,98.068z"/>
			<path fill="#49B648" d="M152.306,131.66c1.723,1.057,0,3.396-0.234,4.698c-1.019-0.46-1.938-1.762-3.523-0.939
				C148.636,133.001,151.797,133.657,152.306,131.66z"/>
			<path fill="#49B648" d="M151.132,111.692c1.008-0.068,0.244,1.253,0.234,1.645C150.476,113.122,151.2,112.397,151.132,111.692z"
				/>
			<path fill="#49B648" d="M151.132,86.322c-0.529,0.979,0.254,1.693,1.174,1.879c-1.243,2.359-3.905,3.299-5.158,5.638
				c-0.137-0.235,0.206-4.444-0.234-5.873c1.243,0,2.496,0,3.748,0c0.568-0.206-0.509-0.714-0.939-0.705
				C149.977,86.733,150.437,86.41,151.132,86.322z"/>
			<path fill="#49B648" d="M148.548,106.29c0.127,1.224-0.304,1.889-0.461,2.819c-0.733,0.029-0.675-0.734-1.653-0.47
				C146.884,107.601,147.128,106.358,148.548,106.29z"/>
			<path fill="#49B648" d="M148.782,128.371c-0.803,1.469-0.353,4.189-0.47,6.343c-2.467-1.438-3.866-3.964-6.098-5.638
				c0.743-1.371,3.015-1.204,2.574-3.759C146.521,125.944,146.942,127.862,148.782,128.371z"/>
			<path fill="#49B648" d="M148.312,117.331c0.059,0.489-1.409,1.272-1.399,0.235C147.187,117.301,147.735,117.301,148.312,117.331z
				"/>
			<path fill="#49B648" d="M147.853,113.337c1.253,0.206,0.44,1.654,0.234,2.349C146.942,115.383,147.706,114.257,147.853,113.337z"
				/>
			<path fill="#49B648" d="M146.198,114.512c-1.263-1.057,0.156-3.005,1.889-2.584C147.471,112.809,146.541,113.366,146.198,114.512
				z"/>
			<path fill="#49B648" d="M147.147,94.544c0.871,1.272-1.027,1.791-0.714,3.289c-0.52-0.186-0.588-0.822-0.94-1.174
				c-0.234,0.157-0.234,0.538-0.704,0.47c0.254,0.607,0.577,1.155,0.47,2.114c-0.44-0.333-1.038-0.519-0.939-1.41
				C144.896,96.375,146.374,95.816,147.147,94.544z"/>
			<path fill="#49B648" d="M145.259,124.613c0.636,0,1.253,0,1.889,0c-0.215,0.685-0.215,0.724,0,1.409
				C145.963,126.11,145.532,125.445,145.259,124.613z"/>
			<path fill="#49B648" d="M145.729,119.68c0.754,0.431,0.822,1.537,1.185,2.349c-1.126,0.235-2.584,0.773-3.759,0.235
				C143.673,121.06,145.483,121.158,145.729,119.68z"/>
			<path fill="#49B648" d="M145.729,84.678c0.117,0.93-1.204,3.015-2.114,4.698c-0.891,1.674-1.929,3.583-3.514,4.229
				C141.295,89.944,143.869,87.663,145.729,84.678z"/>
			<path fill="#49B648" d="M145.033,99.947c0.627,4.082-2.358,4.542-2.818,7.518c-0.832,0.049-0.773-0.793-1.42-0.94
				c-0.312-2.114,1.126-2.476,0.94-4.463c-0.578,0.206-1.019,0.548-0.94,1.41C138.524,102.032,142.665,98.968,145.033,99.947z"/>
			<path fill="#49B648" d="M146.668,94.309c-0.773,0.705-0.822,2.153-2.574,1.879C144.524,95.141,145.308,94.437,146.668,94.309z"/>
			<path fill="#49B648" d="M144.554,93.37c0.255,1.351-1.224,0.969-1.645,1.644c-0.489-0.068,0.343-0.626-0.234-0.939
				c-0.598,0.245-1.019,1.439-1.88,0.705c0.578-0.607,1.243-1.106,1.88-1.645C143.438,93.085,143.673,93.555,144.554,93.37z"/>
			<path fill="#49B648" d="M142.909,73.637c0.578,0.764,0.216,2.457,1.88,2.114c-1.586,1.155-1.019,4.454-3.289,4.933
				c-0.382-1.018-1.194-1.625-2.339-1.879c-0.05-0.822,0.792-0.773,0.939-1.409c-1.341-0.245-1.224,0.979-2.359,0.939
				c-0.606-0.675,0.108-1.458,0-2.349C139.68,78.012,142.42,75.81,142.909,73.637z"/>
			<path fill="#49B648" d="M142.215,112.867c0.538,0,1.086,0,1.635,0c-0.754,0.891,0.117,3.406-1.635,3.289
				C142.067,114.688,142.606,114.002,142.215,112.867z"/>
			<path fill="#49B648" d="M142.675,106.994c0.734-0.107,0.754,0.509,0.704,1.175c-0.303,0-0.626,0-0.939,0
				C142.254,107.503,142.772,107.562,142.675,106.994z"/>
			<path fill="#49B648" d="M141.735,110.518c1.066,0,0.078,1.086,0,1.409C141.03,111.644,141.999,111.125,141.735,110.518z"/>
			<path fill="#49B648" d="M141.04,86.792c0.235,0,0.46,0,0.695,0c-0.128,0.891-0.568,1.468-0.46,2.584
				C140.403,89.17,140.864,87.389,141.04,86.792z"/>
			<path fill="#49B648" d="M138.916,100.417c0.304-0.881,1.625-1.175,2.584-0.705C141.354,100.652,139.993,100.397,138.916,100.417z
				"/>
			<path fill="#49B648" d="M141.04,117.096c-0.068,2.202-2.261,2.29-4.238,2.584C136.567,117.174,139.444,117.781,141.04,117.096z"
				/>
			<path fill="#49B648" d="M139.855,84.678c0.294,0.999-0.773,0.626-0.939,1.174c-0.519-0.029,0.313-0.587,0-1.174
				C139.239,84.678,139.542,84.678,139.855,84.678z"/>
			<path fill="#49B648" d="M140.325,105.115c-0.01,0.695-0.078,1.331-0.939,1.174c-0.166-0.714,0.411-0.685,0.235-1.41
				C140.003,104.821,140.032,105.105,140.325,105.115z"/>
			<path fill="#49B648" d="M139.386,87.731c0.627,2.976,0.333,7.057-2.584,7.282c0-0.548,0-1.096,0-1.644
				c1.175,0.313,1.008-0.725,1.879-0.705c-0.361-1.067-0.998,0.196-1.879,0C137.429,90.785,138.857,89.708,139.386,87.731z"/>
			<path fill="#49B648" d="M139.161,122.029c-0.607,0.538-1.332-0.235-1.42-0.94C138.515,121.108,139.014,121.393,139.161,122.029z"
				/>
			<path fill="#49B648" d="M138.446,83.503c0.078,0.548-0.029,0.901-0.226,1.175c-0.606-0.02-0.47-0.783-0.479-1.41
				C137.938,83.396,138.123,83.513,138.446,83.503z"/>
			<path fill="#49B648" d="M140.561,112.867c-0.842-0.558-1.83-0.979-2.34-1.879c-0.91-0.127-1.154,0.421-2.114,0.235
				c0.725-0.959-0.479-1.605-1.653-1.409c0.078-1.958,0.528-3.543,2.584-3.524C136.763,109.94,140.052,110.019,140.561,112.867z"/>
			<path fill="#49B648" d="M137.977,97.833c0.509,0.284,0.558,1.018,0.939,1.41c-0.646,0.196-1.36,1.096-1.879,0.705
				C137.164,99.056,137.81,98.684,137.977,97.833z"/>
			<path fill="#49B648" d="M137.507,88.436c0.225,0.01,0.127,1.674-0.705,1.41C136.792,89.131,137.301,88.936,137.507,88.436z"/>
			<path fill="#49B648" d="M136.802,79.979c1.762,1.684-0.45,5.256,0.705,7.047c-1.077-0.167-1.732-2.799-3.994-2.584
				C134.052,82.397,135.627,81.389,136.802,79.979z"/>
			<path fill="#49B648" d="M135.862,90.55c0.528,0.245,0.186,1.576-0.46,1.41C135.284,91.226,135.735,91.04,135.862,90.55z"/>
			<path fill="#49B648" d="M134.923,105.115c0.146-0.431,0.988,0.411,0.939,0.939c-0.235,0.157-0.235,0.538-0.695,0.47
				C135.03,106.113,135.451,105.145,134.923,105.115z"/>
			<path fill="#49B648" d="M135.402,111.927c0.127,0.343-0.284,1.214,0.225,1.175c-0.283,0.714-0.803-0.254-1.399,0
				C134.169,112.27,134.561,111.878,135.402,111.927z"/>
			<path fill="#49B648" d="M135.402,114.512c0,0.391,0,0.783,0,1.174c-0.725,0.01-1.547,0.137-1.42-0.705
				c0.382-0.069,0.411,0.225,0.705,0.235c0-0.235,0-0.47,0-0.705C134.923,114.512,135.167,114.512,135.402,114.512z"/>
			<path fill="#49B648" d="M134.453,103.94c0,0.548,0,1.096,0,1.645c-0.793,0.068-1.342,0.372-2.35,0.235
				C132.622,104.929,133.269,104.156,134.453,103.94z"/>
			<path fill="#49B648" d="M129.989,127.432c-0.93-3.387,4.199-8.33,6.117-3.994C134.609,125.317,131.996,126.071,129.989,127.432z"
				/>
			<path fill="#49B648" d="M134.688,90.55c-0.176,1.312-0.871,2.095-0.939,3.524c-1.038,0.02-0.646-1.38-1.645-1.41
				c0.401-0.93,1.048-1.625,0.939-3.054C134.071,89.454,134.345,90.032,134.688,90.55z"/>
			<path fill="#49B648" d="M135.167,101.122c-0.528,0.342-1.135,0.597-2.124,0.47c-0.733,0.382,0.939,0.293,0.47,1.175
				c-0.842,0.176-1.213,0.979-2.104,0.47c-0.352,2.085-0.988,3.866-3.054,4.229C128.423,104.107,132.857,95.699,135.167,101.122z"/>
			<path fill="#49B648" d="M131.634,93.37c0.666-0.196,0.616,0.333,1.175,0.235c-0.646,3.426-2.104,6.029-4.454,7.752
				C128.541,97.784,132.064,97.549,131.634,93.37z"/>
			<path fill="#49B648" d="M132.573,88.671c0.187,1.909-1.194,2.251-1.409,3.758c-0.852-1.634,0.665-2.937,0.939-4.229
				C132.319,88.309,132.524,88.407,132.573,88.671z"/>
			<path fill="#49B648" d="M131.164,118.505c0.764-0.206,0.323,0.773,0.939,0.705c-0.284,1.908-2.134,2.251-2.574,3.993
				C128.58,121.079,130.665,119.963,131.164,118.505z"/>
			<path fill="#49B648" d="M131.869,83.033c0,0.47,0,0.94,0,1.41c-0.686-0.01-0.51-0.891-1.4-0.705
				c1.771,1.175-0.029,3.279,0.226,5.638c-0.627-1.018-1.586-1.693-1.88-3.054c0.559,0,1.097,0,1.654,0
				c-0.254-0.529-1.478-0.088-2.114-0.235c0.167-0.714-0.244-0.852-0.244-1.409C129.705,84.462,130.195,83.161,131.869,83.033z"/>
			<path fill="#49B648" d="M131.164,80.919c0.577,0.44,0.176,1.879-0.235,2.114C129.627,82.642,131.311,81.663,131.164,80.919z"/>
			<path fill="#49B648" d="M129.05,79.275c0.528,0.186,0.92,0.499,1.645,0.47c-0.187,2.163-0.861,3.827-3.054,3.993
				C127.278,81.418,129.138,81.311,129.05,79.275z"/>
			<path fill="#49B648" d="M130.469,112.867c0.049,1.938-1.507,2.251-1.419,4.229c-0.881-0.5-0.372-3.456-0.47-3.994
				C129.344,113.161,129.578,112.691,130.469,112.867z"/>
			<path fill="#49B648" d="M128.11,80.449c-0.97,0.039-0.245-1.635-0.47-2.349C128.619,78.071,127.885,79.735,128.11,80.449z"/>
			<path fill="#49B648" d="M127.171,87.027c0.655,0.293,1.145,0.744,1.184,1.645C128.021,88.055,127.278,87.869,127.171,87.027z"/>
			<path fill="#49B648" d="M126.7,111.223c-0.47,0-0.939,0-1.409,0c0.313-0.939-0.636-2.427-1.635-2.819
				c0.421-1.077,1.841,0.293,2.104-0.939C126.544,108.247,126.191,110.166,126.7,111.223z"/>
			<path fill="#49B648" d="M125.761,88.671c0.881-0.088,1.38,0.186,1.41,0.939C126.437,89.572,125.771,89.444,125.761,88.671z"/>
			<path fill="#49B648" d="M125.996,84.678c0.949-0.02,0.509,2.075-0.46,1.645C125.301,85.392,126.23,85.617,125.996,84.678z"/>
			<path fill="#49B648" d="M125.996,94.779c0.117,0.744-0.421,0.832-0.235,1.645c-0.587-0.264-0.675-1.038-0.704-1.879
				C125.487,94.515,125.556,94.837,125.996,94.779z"/>
			<path fill="#49B648" d="M123.656,117.8c2.927-1.801,2.379,1.997,2.34,4.463C124.685,121.304,124.821,118.896,123.656,117.8z"/>
			<path fill="#49B648" d="M122.942,96.658c0.861,2.516,3.347,3.387,3.054,7.047c-1.615-0.421-2.32-1.742-2.819-3.289
				c-0.587,0.46,0.284,1.429,0.245,2.114c-0.479,0-0.939,0-1.42,0c0.529-1.811,1.272-2.956,0.235-4.698
				C121.992,96.961,123.128,97.461,122.942,96.658z"/>
			<path fill="#49B648" d="M124.821,84.913c-0.489-0.939,0.02-1.918,1.175-1.879C125.702,83.758,125.644,84.717,124.821,84.913z"/>
			<path fill="#49B648" d="M121.542,85.382c1.654,0.842,3.064,1.948,3.054,4.463c-1.047,0.108-1.252-0.636-1.889-0.939
				c-0.861,0.235-0.695,1.498-1.645,1.644c-0.655-0.988-0.783-2.496-0.939-3.993C120.476,86.048,121.474,86.185,121.542,85.382z"/>
			<path fill="#49B648" d="M122.942,89.846c1.125,1.067,1.321,3.073,1.419,5.168C122.619,94.495,122.012,91.647,122.942,89.846z"/>
			<path fill="#49B648" d="M124.116,122.733c-0.939,0.548-2.466-0.333-2.349-1.645c0.392,0,0.793,0,1.175,0
				C123.304,121.676,123.432,122.489,124.116,122.733z"/>
			<path fill="#49B648" d="M121.298,111.692c0.264-0.881,2.261-0.489,2.124,0.47C122.59,112.867,122.091,111.751,121.298,111.692z"
				/>
			<path fill="#49B648" d="M122.482,84.208c0.93-0.225,0.088,1.312,0.939,1.174C122.766,86.263,121.992,84.511,122.482,84.208z"/>
			<path fill="#49B648" d="M123.177,119.445c-1.057,0.734-1.742-1.615-2.818-0.94c-0.255,1.507,1.624,0.891,1.644,2.114
				c-2.623,0.607-4.277-1.615-5.638-3.054c0.568-0.137,1.713,0.293,1.88-0.235c1.076-0.01,0.02,0.822,0.244,1.409
				C120.035,117.096,122.247,117.624,123.177,119.445z"/>
			<path fill="#49B648" d="M122.942,110.753c-1.919,0.91-2.065-1.576-3.524-1.879c-0.029-0.578,0.372-0.724,0.47-1.174
				c-2.456,0.284-4.708,0.773-5.872,2.349c-0.294-1.243,0.93-2.985,0.714-4.933C118.459,106.006,121.66,107.425,122.942,110.753z"/>
			<path fill="#49B648" d="M122.237,106.055c-1.155,0.842-1.302-1.351-1.175-2.584C121.875,103.911,121.278,105.771,122.237,106.055
				z"/>
			<path fill="#49B648" d="M116.609,88.671c1.575,1.556,4.688,1.576,4.688,4.698c-2.212-0.999-4.189-2.222-6.108-3.524
				c-0.45-2.995,3.515-2.78,3.759-0.47C117.931,89.386,117.568,88.73,116.609,88.671z"/>
			<path fill="#49B648" d="M119.663,110.048c0.577,1.292,0.098,3.337-1.175,3.523c0.519,1.116-0.029,2.447-0.244,3.524
				c-1.263,0.391-2.722,0.029-3.289-0.94c0.852-2.594,3.944-2.946,3.993-6.342C119.33,109.754,119.359,110.039,119.663,110.048z"/>
			<path fill="#49B648" d="M122.002,95.249c-0.195,1.194-1.84,1.987-2.584,1.879c0.079-1.634-0.694-2.427-0.694-3.994
				C120.123,93.526,121.082,94.368,122.002,95.249z"/>
			<path fill="#49B648" d="M119.663,86.557c0,0.558-0.411,0.695-0.245,1.409c-1.086-0.313-1.575-1.243-1.634-2.584
				C118.469,85.715,118.665,86.528,119.663,86.557z"/>
			<path fill="#49B648" d="M117.784,92.43c0.606,1.831-0.05,4.091-0.48,5.638c-1.282-0.049-0.881-1.782-1.634-2.349
				c0.244-0.852,1.723-2.418,0.46-3.289C116.169,92.048,117.118,92.674,117.784,92.43z"/>
			<path fill="#49B648" d="M118.948,122.499c-1.811,1.116-5.314,0.059-5.872-1.645C115.787,120.658,116.814,122.136,118.948,122.499
				z"/>
			<path fill="#49B648" d="M114.25,100.417c1.263,0.548,1.439,2.173,2.584,2.819C115.581,102.697,114.221,102.257,114.25,100.417z"
				/>
			<path fill="#49B648" d="M114.25,95.719c0.744,0.802,1.664,2.505,0.939,3.993c-1.977-0.284-2.574-1.958-3.278-3.523
				C112.812,96.159,113.967,96.375,114.25,95.719z"/>
			<path fill="#49B648" d="M112.371,127.432c0.861-1.439,3.876-1.889,4.698-2.584c-0.822,1.135-1.899,2.006-2.34,3.523
				C113.595,128.411,113.712,127.187,112.371,127.432z"/>
			<path fill="#49B648" d="M115.895,123.908c-0.567,0.832-2.153,0.656-3.044,1.174c-0.519-0.753,1.027-1.458,1.165-2.349
				C114.809,122.968,115.111,123.673,115.895,123.908z"/>
			<path fill="#49B648" d="M113.311,104.41c0.686,0.186,1.146,0.587,0.939,1.645C113.418,106.035,113.311,105.281,113.311,104.41z"
				/>
			<path fill="#49B648" d="M115.895,104.175c-1.115-0.264-2.114-0.489-3.044-0.235c-0.353-0.353-0.382-1.028-0.479-1.645
				c-0.216,2.643,2.241,7.243,0,9.867c-2.017-2.271,2.878-8.584-3.054-7.987c0.137-1.595-0.274-3.719,0.234-4.933
				C112.097,100.466,113.731,102.59,115.895,104.175z"/>
			<path fill="#49B648" d="M113.546,91.021c-1.645,0.245-4.053-0.793-4.689-2.349c0.5-0.509,1.665-0.362,1.634-1.41
				C111.862,88.172,112.655,89.65,113.546,91.021z"/>
			<path fill="#49B648" d="M112.615,82.094c0,0.392,0,0.783,0,1.174c-0.606-0.029-0.92-0.342-0.939-0.939
				C112.097,82.358,112.165,82.045,112.615,82.094z"/>
			<path fill="#49B648" d="M112.615,116.625c-0.489,0.401-1.419-0.763-1.653-1.409C112.175,115.021,111.999,116.225,112.615,116.625
				z"/>
			<path fill="#49B648" d="M112.615,86.557c-0.665,0.401-1.585-0.93-2.358-1.879c-1.116-1.38-1.723-2.584-2.114-4.698
				C110.6,80.273,111.833,83.816,112.615,86.557z"/>
			<path fill="#49B648" d="M110.962,97.128c0.753,0.186,1.066,0.822,0.949,1.879C110.952,99.027,110.893,98.146,110.962,97.128z"/>
			<path fill="#49B648" d="M112.851,125.552c-2.056,2.535-4.63-0.9-6.812-1.174c0.421,2.241,3.749,1.576,3.279,4.698
				c-0.343,0.274-0.959,0.293-1.175,0.705c-1.204-2.232-1.488-5.394-4.463-5.873c0.539-1.978,2.222-2.79,4.463-3.054
				C108.299,123.839,109.943,125.317,112.851,125.552z"/>
			<path fill="#49B648" d="M112.371,118.505c-1.067,1.136-3.132,0.079-3.994-0.47c-0.959,0.196,0.127,0.969-0.46,1.41
				c-0.852,0.068-1.135-0.431-1.879-0.47c0.764-0.802,2.76-1.605,2.339-2.819C109.522,116.195,110.844,118.074,112.371,118.505z"/>
			<path fill="#49B648" d="M109.552,113.337c0.666,0.049,1.009,0.411,0.939,1.175C109.63,114.678,109.454,114.14,109.552,113.337z"
				/>
			<path fill="#49B648" d="M110.491,116.625c-0.127,0.343-1.096-0.44-1.174-0.939C110.315,115.393,109.953,116.469,110.491,116.625z
				"/>
			<path fill="#49B648" d="M109.082,129.311c1.331,0,0.92,1.752,2.114,1.879c-0.626,1.645-1.615,2.927-3.279,3.523
				c-0.44-0.744-0.343-2.007-1.654-1.879C107.154,131.611,108.465,130.809,109.082,129.311z"/>
			<path fill="#49B648" d="M108.143,112.632c0.313-0.597,1.537-0.147,1.175,0.705C108.632,113.396,108.515,112.896,108.143,112.632z
				"/>
			<path fill="#49B648" d="M106.498,88.436c0.343-0.391,2.398-0.528,2.114,0.47c0.078,0.959-0.323-0.04-0.939,0.235
				c0.245,0.617,0.939,0.792,1.184,1.409c-0.068,0.881-0.548,1.341-0.939,1.879C107.32,91.226,107.487,89.249,106.498,88.436z"/>
			<path fill="#49B648" d="M108.143,101.122c0,1.174,0,2.349,0,3.523c-0.773-0.705-1.057,0.5-1.165,1.175
				c-0.891-1.077-0.313-3.612-0.479-5.403C107.183,100.524,107.242,101.249,108.143,101.122z"/>
			<path fill="#49B648" d="M106.263,110.283c1.233-0.049,1.331,1.028,1.654,1.879C106.743,112.163,106.195,111.536,106.263,110.283z
				"/>
			<path fill="#49B648" d="M103.924,89.611c1.439,1.527,3.514,2.427,3.749,5.168c-1.419-0.773-3.426-0.949-4.229-2.349
				C103.327,91.216,104.11,90.903,103.924,89.611z"/>
			<path fill="#49B648" d="M106.498,95.014c0.235,1.713-1.038,1.928-1.174,3.289c-0.911-0.881-1.38-2.212-1.4-3.994
				C105.206,94.123,105.324,95.092,106.498,95.014z"/>
			<path fill="#49B648" d="M103.924,82.563c0.636,0.303,1.302,0.578,2.339,0.47c-0.401,0.764-1.517,0.832-2.584,0.94
				c0.059,0.411,0.411,0.538,0.939,0.47c0.754,0.323-0.822,0.235-1.174,0.235c0.714,1.174,1.507,2.261,2.594,3.054
				c-0.675,0.587,0.881,2.398,0.939,3.759c-2.104-1.028-3.788-4.522-6.107-6.108C101.692,84.257,104.247,84.844,103.924,82.563z"/>
			<path fill="#49B648" d="M101.105,131.19c2.271,1.243,1.155,5.893,4.698,5.873c-0.392,1.331-1.85,1.595-2.124,3.054
				c-0.509-0.656-0.773-1.566-1.174-2.35c-0.715-0.166-0.451-0.166-1.175,0C100.674,136.104,100.752,133.167,101.105,131.19z"/>
			<path fill="#49B648" d="M105.803,114.042c-0.871,0.646-1.527-0.558-1.654-1.409C104.883,112.926,105.676,113.151,105.803,114.042
				z"/>
			<path fill="#49B648" d="M105.089,100.182c1.527,0.959,0.029,3.162,0.235,4.934c-0.822-1.439-3.171-1.361-3.759-3.054
				C103.102,102.678,105.412,102.188,105.089,100.182z"/>
			<path fill="#49B648" d="M102.74,104.175c1.39,0.029,2.476,2.378,2.819,4.229C104.042,107.582,103.816,105.448,102.74,104.175z"/>
			<path fill="#49B648" d="M102.74,132.13c0.117-0.392,1.233,0.166,0.939,0.939C102.808,133.324,103.219,132.276,102.74,132.13z"/>
			<path fill="#49B648" d="M100.166,109.813c2.877-0.832,5.305,4.629,2.819,6.342C101.751,114.335,101.271,111.751,100.166,109.813z
				"/>
			<path fill="#49B648" d="M100.87,117.331c0.714-0.167,0.685,0.411,1.399,0.235c-0.225,0.479-0.479,0.93-0.705,1.409
				c-0.206-0.176-0.528-0.254-0.939-0.235C100.459,118.025,100.87,117.888,100.87,117.331z"/>
			<path fill="#49B648" d="M102.74,128.841c-0.44,0.098-0.421,0.675-1.175,0.47c-0.176-1.038,0.313-1.41,0.235-2.349
				C102.377,127.334,102.681,127.96,102.74,128.841z"/>
			<path fill="#49B648" d="M100.166,114.276c-2.467,0.04-2.682-2.173-4.238-3.054C97.336,111.311,99.745,112.417,100.166,114.276z"
				/>
			<path fill="#49B648" d="M97.111,110.988c0.597-1.449,2.946-0.47,2.819,0.939C98.795,111.81,98.09,111.252,97.111,110.988z"/>
			<path fill="#49B648" d="M99.216,107.934c0,0.313,0,0.626,0,0.939C98.315,109.06,98.315,107.748,99.216,107.934z"/>
			<path fill="#49B648" d="M93.118,122.733c2.045-0.891,2.926,1.047,4.933,0.939c-1.185,0.734-3.015,1.596-4.209,2.203
				C94.684,125.043,93.989,123.331,93.118,122.733z"/>
			<path fill="#49B648" d="M97.111,114.276c0.901-0.186,0.901,1.126,0,0.94C97.111,114.903,97.111,114.59,97.111,114.276z"/>
			<path fill="#49B648" d="M96.172,115.921c0.098,0.891-0.47,1.106-0.714,1.645c-0.686-0.147-1.596-0.861-1.165-1.41
				C94.625,115.794,95.487,115.95,96.172,115.921z"/>
			<path fill="#49B648" d="M94.518,104.88c0.636-0.753,0.539,1.175,1.41,0.94c-0.245,0.538-0.705,0.852-1.41,0.939
				C94.341,105.888,95.487,105.145,94.518,104.88z"/>
			<path fill="#49B648" d="M93.823,125.885c-0.157,0.167-0.392,0.293-0.705,0.372C93.314,126.149,93.549,126.022,93.823,125.885z"/>
			<path fill="#49B648" d="M91.699,114.981c1.546-0.294,1.488,1.028,1.419,2.349C92.267,116.929,91.846,116.087,91.699,114.981z"/>
			<path fill="#1A75BC" d="M94.518,119.915c-2.545,1.958-4.581-1.321-6.812-1.879c-0.127-2.241,1.165-3.063,1.879-4.463
				c1.067,0.274,1.664,0.999,1.654,2.349c-0.479,0-0.94,0-1.419,0C91.513,117.135,93.02,118.524,94.518,119.915z"/>
			<path fill="#1A75BC" d="M92.178,121.559c-1.595,0.186-2.516-0.304-3.758-0.47c-0.313,2.036,0.93,4.552,2.574,5.403
				c-4.131,1.008-5.051-3.24-5.628-6.578C87.313,116.929,90.377,120.277,92.178,121.559z"/>
			<path fill="#49B648" d="M90.299,131.19c0.607,0.401-0.372,1.185-1.174,0.939C89.173,131.483,89.996,131.592,90.299,131.19z"/>
			<path fill="#49B648" d="M89.584,110.753c-1.723,0.479-2.721-1.811-3.759-2.819C87.118,107.905,88.919,109.393,89.584,110.753z"/>
			<path fill="#49B648" d="M87.705,100.417c0.5-0.773,0.685,0.705,1.419,0.47c-0.078,0.479-0.636,0.46-0.705,0.939
				C87.793,101.748,88.205,100.632,87.705,100.417z"/>
			<path fill="#49B648" d="M85.826,123.908c-1.566,0.166-2.192-2.653-3.514-3.524c0.215-0.881,1.879-0.303,2.809-0.47
				C85.062,121.549,85.18,122.988,85.826,123.908z"/>
		</g>
		<g>
		</g>
	</g>
</g>
</svg>
